<svg width="48" height="49" viewBox="0 0 48 49" fill="none" xmlns="http://www.w3.org/2000/svg">
<g id="gmail" clip-path="url(#clip0_342_3191)">
<g id="Group">
<path id="Vector" fill-rule="evenodd" clip-rule="evenodd" d="M45.791 12.548C45.791 11.01 45.181 9.53404 44.093 8.44604C43.005 7.36004 41.5289 6.74805 39.9909 6.74805C32.3309 6.74805 15.671 6.74805 8.01096 6.74805C6.47296 6.74805 4.99694 7.36004 3.90894 8.44604C2.82094 9.53404 2.21094 11.01 2.21094 12.548C2.21094 18.676 2.21094 30.324 2.21094 36.452C2.21094 37.99 2.82094 39.466 3.90894 40.554C4.99694 41.64 6.47296 42.252 8.01096 42.252C15.671 42.252 32.3309 42.252 39.9909 42.252C41.5289 42.252 43.005 41.64 44.093 40.554C45.181 39.466 45.791 37.99 45.791 36.452V12.548ZM42.1909 12.548V36.452C42.1909 37.036 41.9589 37.596 41.5469 38.008C41.1349 38.42 40.5749 38.652 39.9909 38.652C32.3309 38.652 15.671 38.652 8.01096 38.652C7.42696 38.652 6.86696 38.42 6.45496 38.008C6.04296 37.596 5.81094 37.036 5.81094 36.452C5.81094 30.324 5.81094 18.676 5.81094 12.548C5.81094 11.964 6.04296 11.4041 6.45496 10.9921C6.86696 10.5801 7.42696 10.3481 8.01096 10.3481C15.671 10.3481 32.3309 10.3481 39.9909 10.3481C40.5749 10.3481 41.1349 10.5801 41.5469 10.9921C41.9589 11.4041 42.1909 11.964 42.1909 12.548ZM11.8009 17.23V34.5C11.8009 35.494 10.9949 36.3 10.0009 36.3C9.00695 36.3 8.20096 35.494 8.20096 34.5V14.5C8.20096 13.894 8.50496 13.33 9.01096 12.998C9.51496 12.664 10.1529 12.608 10.7109 12.846L24.0009 18.5421L37.291 12.846C37.849 12.608 38.4869 12.664 38.9909 12.998C39.4969 13.33 39.8009 13.894 39.8009 14.5V34.5C39.8009 35.494 38.9949 36.3 38.0009 36.3C37.0069 36.3 36.201 35.494 36.201 34.5V17.23L24.7109 22.1541C24.2569 22.3481 23.745 22.3481 23.291 22.1541L11.8009 17.23Z" fill="#030303"/>
</g>
</g>
<defs>
<clipPath id="clip0_342_3191">
<rect width="48" height="48" fill="white" transform="translate(0 0.5)"/>
</clipPath>
</defs>
</svg>
