<svg width="38" height="24" viewBox="0 0 38 24" fill="none" xmlns="http://www.w3.org/2000/svg">
<path d="M12.6529 18.9353C11.2381 16.5115 11.3436 11.0979 11.5732 8.69398C11.3797 8.08998 11.1161 6.64281 11.6095 5.68611C12.2263 4.49023 13.4353 3.90316 15.8416 3.93221C18.2479 3.96126 19.9945 8.79564 19.9582 11.8035C19.9219 14.8114 19.8711 19.0224 18.6534 20.211C17.4357 21.3997 14.4213 21.9649 12.6529 18.9353Z" stroke="black" stroke-width="4.81295"/>
<path d="M21.3482 18.4387C19.9334 16.015 20.0389 10.6013 20.2685 8.1974C20.075 7.5934 19.8114 6.14623 20.3048 5.18953C20.9216 3.99365 22.1306 3.40658 24.5369 3.43563C26.9432 3.46468 28.6898 8.29906 28.6535 11.3069C28.6172 14.3148 28.5664 18.5258 27.3487 19.7144C26.131 20.9031 23.1166 21.4683 21.3482 18.4387Z" stroke="black" stroke-width="4.81295"/>
<path d="M30.4012 14.6123C29.0789 12.9787 28.3424 8.88491 28.1394 7.04221C27.9178 6.61344 27.5228 5.55887 27.715 4.77071C27.9552 3.78552 28.6885 3.17838 30.3265 2.87236C31.9646 2.56633 33.8721 5.97121 34.2965 8.2427C34.7209 10.5142 35.315 13.6943 34.6657 14.7559C34.0164 15.8175 32.0542 16.6543 30.4012 14.6123Z" stroke="black" stroke-width="4.81295"/>
<path d="M4.47333 17.0022C3.09799 14.9688 3.19165 10.432 3.41039 8.4178C3.22186 7.91131 2.96399 6.6981 3.44082 5.89712C4.03685 4.89589 5.20802 4.40582 7.54082 4.43398C9.87361 4.46214 11.5745 8.51635 11.5441 11.037C11.5137 13.5577 11.4711 17.0867 10.2925 18.0809C9.11393 19.0751 6.1925 19.544 4.47333 17.0022Z" stroke="black" stroke-width="4.81295"/>
</svg>
