<svg width="155" height="137" viewBox="0 0 155 137" fill="none" xmlns="http://www.w3.org/2000/svg">
<g id="Vector" filter="url(#filter0_d_245_3908)">
<path d="M66.3268 23.1584V45.7486L54.3564 39.8555C47.7727 36.7125 41.588 33.9624 40.391 33.9624C35.8024 33.9624 38.9945 40.0519 47.5732 47.5165C53.7579 52.8203 55.9525 55.7669 54.1569 56.3562C52.5609 56.9455 40.79 60.0885 27.6226 63.2314C3.08341 69.1245 -1.90424 71.6782 1.88637 75.4105C3.28291 76.7856 12.8592 76.1963 34.2063 73.0533C50.9648 70.696 65.1297 69.321 65.7283 69.9103C66.3268 70.696 62.9352 77.5713 58.3465 85.4288C53.5584 93.2862 49.5683 100.358 49.1693 100.947C48.7703 101.733 49.7678 103.305 51.1643 104.483C53.5584 106.447 55.5535 105.465 61.9376 99.9651C66.3268 96.0364 70.7159 92.8934 71.7134 92.8934C72.711 92.8934 74.706 98.7865 76.3021 106.055C79.6937 122.948 82.0877 128.252 86.4769 128.252C91.8635 128.252 92.8611 122.162 91.265 99.5722C90.467 88.1789 90.467 79.1428 91.4645 79.1428C92.4621 79.1428 100.442 82.2858 109.221 86.0181C126.578 93.4827 132.164 94.4649 132.164 90.1433C132.164 86.2145 128.972 83.4644 113.61 73.0533C106.228 68.3388 100.243 63.8208 100.243 63.2314C100.243 62.6421 110.418 59.3027 122.787 55.7669C144.932 49.4809 154.109 45.3557 154.109 41.8199C154.109 38.8733 141.54 39.4626 121.59 42.9985C112.014 44.7664 103.435 45.7486 102.836 44.9628C102.238 44.3735 103.634 39.2662 106.028 33.766C115.006 12.3544 109.42 10.39 95.4546 30.2301C90.2675 37.8911 85.0803 43.3913 84.2823 42.4092C83.4843 41.6234 81.2897 33.766 79.2947 25.1227C75.3045 6.65771 72.711 0.568169 68.9204 0.568169C66.9253 0.568169 66.3268 5.67552 66.3268 23.1584Z" fill="#DE611A"/>
<path d="M67.8268 45.7486V48.159L65.6642 47.0943L53.7102 41.2092C53.7075 41.2079 53.7048 41.2066 53.7021 41.2053C50.4209 39.639 47.2525 38.177 44.7624 37.1089C43.5143 36.5735 42.4541 36.1446 41.6434 35.8522C41.2369 35.7057 40.912 35.6002 40.6679 35.5333C40.4533 35.4744 40.3666 35.4641 40.3667 35.4625C40.3667 35.4625 40.3667 35.4625 40.3668 35.4625C40.0549 35.4646 39.8798 35.5065 39.7964 35.5359C39.7957 35.5496 39.7953 35.5657 39.7955 35.5844C39.7965 35.6652 39.8087 35.7828 39.8459 35.9422C39.9215 36.2667 40.0849 36.6986 40.3707 37.2397C41.5368 39.4478 44.3111 42.6891 48.5534 46.381C51.6516 49.0382 53.8565 51.1915 55.0607 52.8083C55.6321 53.5756 56.1484 54.4392 56.246 55.304C56.3007 55.7886 56.2318 56.3539 55.8853 56.8657C55.5536 57.3556 55.0822 57.6262 54.6528 57.772C53.7314 58.1068 50.3159 59.0562 45.6086 60.2874C40.8106 61.5422 34.566 63.1162 27.9719 64.6902C15.6632 67.6462 8.44845 69.7244 4.77938 71.4838C3.87667 71.9167 3.25091 72.302 2.83656 72.637C2.41701 72.9763 2.29558 73.1984 2.26386 73.2838L2.26339 73.2851C2.24924 73.3232 2.23437 73.3632 2.28677 73.4919C2.35449 73.6583 2.52223 73.9221 2.88556 74.2886C2.92036 74.3039 3.00519 74.3379 3.16446 74.3777C3.47835 74.4563 3.95013 74.5256 4.61693 74.5672C5.94658 74.6501 7.86494 74.6123 10.4596 74.4299C15.6379 74.0657 23.323 73.1395 33.9878 71.5693L33.9878 71.5692L33.9974 71.5679C42.392 70.3871 50.1439 69.4513 55.8797 68.8841C58.7446 68.6008 61.123 68.4078 62.833 68.3231C63.6834 68.281 64.3975 68.2642 64.9339 68.2801C65.1976 68.288 65.459 68.3047 65.6886 68.3401C65.802 68.3576 65.9466 68.3855 66.0972 68.4345C66.2103 68.4713 66.5108 68.5758 66.7807 68.8414L66.8568 68.9164L66.9215 69.0014C67.211 69.3815 67.2738 69.7895 67.2905 70.0193C67.3088 70.2721 67.2846 70.5148 67.2524 70.7166C67.1876 71.1228 67.0536 71.5824 66.8893 72.0546C66.5561 73.012 66.0164 74.25 65.3343 75.6679C63.9642 78.5159 61.9478 82.2366 59.6418 86.1852L59.6348 86.1973L59.6275 86.2093C57.2406 90.1262 55.0515 93.8491 53.4079 96.6689C52.9063 97.5294 52.4495 98.3167 52.0509 99.0034C51.3932 100.137 50.8943 100.996 50.6159 101.459C50.6469 101.543 50.7001 101.66 50.7877 101.81C51.0577 102.27 51.5315 102.829 52.1238 103.33C52.5957 103.716 52.925 103.855 53.1933 103.898C53.4573 103.939 53.838 103.914 54.4613 103.646C55.8055 103.067 57.7219 101.617 60.9481 98.8377C63.1719 96.8478 65.4032 95.0494 67.22 93.7393C68.1272 93.0851 68.953 92.5367 69.6357 92.1449C69.9755 91.9499 70.3055 91.7788 70.6087 91.652C70.8661 91.5445 71.275 91.3934 71.7134 91.3934C72.5387 91.3934 73.0666 91.9511 73.2613 92.1741C73.5247 92.4757 73.7538 92.8502 73.9528 93.2265C74.358 93.9927 74.7801 95.0402 75.2011 96.2586C76.0488 98.7121 76.9611 102.062 77.7672 105.733L77.7701 105.746L77.7727 105.759C79.4708 114.217 80.8901 119.606 82.3797 122.865C83.1203 124.485 83.8248 125.456 84.4844 126.017C85.099 126.54 85.7242 126.752 86.4769 126.752C87.5086 126.752 88.1292 126.478 88.6038 125.948C89.1487 125.338 89.6655 124.207 90.0098 122.137C90.6989 117.996 90.5691 111.005 89.7687 99.6779L89.7687 99.677C89.3682 93.9594 89.1662 88.8105 89.1915 85.0749C89.2041 83.216 89.273 81.6607 89.4118 80.5471C89.4795 80.0042 89.5735 79.4809 89.7204 79.0595C89.7913 78.8563 89.9086 78.5743 90.1131 78.316C90.3208 78.0537 90.7673 77.6428 91.4645 77.6428C91.8293 77.6428 92.2596 77.7565 92.5607 77.8414C92.9306 77.9456 93.3886 78.0932 93.9134 78.2739C94.9664 78.6362 96.3528 79.1539 97.9689 79.783C101.205 81.0426 105.409 82.7677 109.807 84.6377L109.813 84.6401C118.515 88.3825 124.096 90.4208 127.465 91.024C129.192 91.3331 130.013 91.1988 130.347 91.031C130.464 90.9719 130.512 90.915 130.549 90.8405C130.599 90.7401 130.664 90.5325 130.664 90.1433C130.664 89.396 130.52 88.7408 130.113 88.0068C129.685 87.235 128.938 86.3245 127.636 85.1373C125.016 82.7468 120.482 79.5228 112.785 74.3064C109.076 71.9369 105.712 69.6136 103.265 67.8006C102.043 66.8949 101.032 66.1037 100.317 65.4904C99.9633 65.1872 99.6542 64.9039 99.4222 64.6575C99.309 64.5373 99.1824 64.3925 99.0744 64.2349C99.0202 64.1558 98.9503 64.0441 98.8896 63.9075C98.8355 63.7861 98.7428 63.5445 98.7428 63.2314C98.7428 62.693 99.0156 62.3341 99.1169 62.2116C99.2442 62.0579 99.3789 61.9497 99.4647 61.8859C99.6421 61.7539 99.8443 61.6415 100.021 61.551C100.39 61.3625 100.89 61.1486 101.477 60.9178C102.663 60.4513 104.352 59.8579 106.406 59.1797C110.521 57.821 116.177 56.0961 122.375 54.3246L122.377 54.3239C133.441 51.1835 141.183 48.6046 146.141 46.3923C148.628 45.2826 150.327 44.3025 151.382 43.4436C152.184 42.7912 152.47 42.3288 152.565 42.0504C152.379 41.9573 152.054 41.8395 151.534 41.7335C150.225 41.4664 148.175 41.3679 145.39 41.4771C139.856 41.6941 131.806 42.7114 121.857 44.4745C117.047 45.3625 112.471 46.0563 109.007 46.4296C107.281 46.6158 105.796 46.7261 104.686 46.736C104.137 46.7408 103.628 46.722 103.207 46.6611C102.998 46.631 102.76 46.5836 102.529 46.4999C102.35 46.4349 102 46.2878 101.713 45.9573C101.279 45.4762 101.223 44.8762 101.207 44.6424C101.183 44.2945 101.21 43.9145 101.258 43.5449C101.356 42.7946 101.571 41.8505 101.866 40.7996C102.461 38.6874 103.432 35.9746 104.649 33.177C106.875 27.8658 108.16 23.8487 108.652 21.1241C108.9 19.7469 108.924 18.8144 108.831 18.2516C108.81 18.1299 108.789 18.042 108.769 17.9799C108.64 18.0096 108.406 18.0868 108.038 18.2929C107.347 18.6804 106.434 19.3859 105.304 20.4795C103.055 22.6553 100.153 26.1629 96.6889 31.0826C94.0667 34.9544 91.4298 38.3033 89.3235 40.5796C88.2789 41.7085 87.3168 42.6262 86.521 43.2084C86.1381 43.4885 85.6912 43.7684 85.2262 43.9138C84.8097 44.0439 83.8564 44.1984 83.168 43.4142C82.8811 43.104 82.6818 42.6932 82.5564 42.4188C82.3905 42.0558 82.215 41.6051 82.0335 41.0945C81.6691 40.0693 81.2477 38.7091 80.7951 37.1245C79.8883 33.9499 78.8345 29.7986 77.8331 25.4601L77.8307 25.4499L77.8285 25.4396C75.8324 16.2023 74.2109 10.1911 72.6513 6.50565C71.8707 4.661 71.1542 3.52026 70.5058 2.85572C69.9871 2.32416 69.5444 2.1254 69.1278 2.07932C69.1044 2.12149 69.0758 2.17793 69.0425 2.2523C68.8047 2.78347 68.5618 3.77596 68.3656 5.47894C67.9779 8.84233 67.8268 14.4056 67.8268 23.1584V45.7486ZM50.5791 101.329C50.579 101.328 50.5791 101.33 50.5798 101.334C50.5795 101.331 50.5792 101.329 50.5791 101.329ZM108.709 17.8473C108.709 17.8484 108.713 17.8567 108.724 17.8686C108.715 17.8523 108.71 17.8463 108.709 17.8473ZM69.2019 1.96816C69.2018 1.96748 69.1976 1.9713 69.1895 1.9817C69.1979 1.97402 69.202 1.96884 69.2019 1.96816Z" stroke="black" stroke-width="3"/>
</g>
<defs>
<filter id="filter0_d_245_3908" x="0.75" y="0.568115" width="153.359" height="135.448" filterUnits="userSpaceOnUse" color-interpolation-filters="sRGB">
<feFlood flood-opacity="0" result="BackgroundImageFix"/>
<feColorMatrix in="SourceAlpha" type="matrix" values="0 0 0 0 0 0 0 0 0 0 0 0 0 0 0 0 0 0 127 0" result="hardAlpha"/>
<feOffset dy="7.76457"/>
<feComposite in2="hardAlpha" operator="out"/>
<feColorMatrix type="matrix" values="0 0 0 0 0.745098 0 0 0 0 0.74902 0 0 0 0 0.705882 0 0 0 1 0"/>
<feBlend mode="normal" in2="BackgroundImageFix" result="effect1_dropShadow_245_3908"/>
<feBlend mode="normal" in="SourceGraphic" in2="effect1_dropShadow_245_3908" result="shape"/>
</filter>
</defs>
</svg>
