<svg width="48" height="49" viewBox="0 0 48 49" fill="none" xmlns="http://www.w3.org/2000/svg">
<g id="Linkedin" clip-path="url(#clip0_342_3207)">
<path id="Vector" d="M34.794 48.1571H13.2078C9.79712 48.1534 6.52722 46.797 4.11554 44.3853C1.70386 41.9736 0.34738 38.7037 0.34375 35.2931V13.7068C0.34738 10.2961 1.70386 7.02624 4.11554 4.61456C6.52722 2.20288 9.79712 0.846404 13.2078 0.842773H34.794C38.2047 0.846404 41.4746 2.20288 43.8862 4.61456C46.2979 7.02624 47.6544 10.2961 47.658 13.7068V35.2931C47.6544 38.7037 46.2979 41.9736 43.8862 44.3853C41.4746 46.797 38.2047 48.1534 34.794 48.1571ZM13.2078 4.27134C10.7064 4.27497 8.3086 5.27022 6.5399 7.03892C4.7712 8.80762 3.77595 11.2055 3.77232 13.7068V35.2931C3.77595 37.7944 4.7712 40.1922 6.5399 41.9609C8.3086 43.7296 10.7064 44.7249 13.2078 44.7285H34.794C37.2954 44.7249 39.6932 43.7296 41.4619 41.9609C43.2306 40.1922 44.2258 37.7944 44.2295 35.2931V13.7068C44.2258 11.2055 43.2306 8.80762 41.4619 7.03892C39.6932 5.27022 37.2954 4.27497 34.794 4.27134H13.2078Z" fill="black"/>
<path id="Vector_2" d="M14.3452 20.8245H14.3315C13.0363 20.8245 11.9863 21.8744 11.9863 23.1696V33.5102C11.9863 34.8054 13.0363 35.8553 14.3315 35.8553H14.3452C15.6404 35.8553 16.6903 34.8054 16.6903 33.5102V23.1696C16.6903 21.8744 15.6404 20.8245 14.3452 20.8245Z" fill="black"/>
<path id="Vector_3" d="M14.3452 13.1446C13.8775 13.1419 13.4196 13.2782 13.0295 13.5364C12.6395 13.7945 12.3351 14.1628 12.1548 14.5944C11.9746 15.026 11.9267 15.5014 12.0173 15.9602C12.1079 16.4191 12.3328 16.8406 12.6636 17.1714C12.9943 17.5021 13.4158 17.727 13.8747 17.8176C14.3335 17.9082 14.8089 17.8603 15.2405 17.6801C15.6721 17.4998 16.0404 17.1954 16.2985 16.8054C16.5567 16.4154 16.693 15.9574 16.6903 15.4897C16.6867 14.8689 16.4385 14.2744 15.9995 13.8354C15.5605 13.3964 14.966 13.1482 14.3452 13.1446ZM27.4286 24.0337C27.8858 23.9051 28.3671 23.8878 28.8324 23.9833C29.2976 24.0787 29.7333 24.2841 30.1029 24.5823C30.5338 25.0877 30.858 25.6751 31.056 26.3091C31.254 26.9431 31.3217 27.6106 31.2549 28.2714V33.5103C31.2585 34.1335 31.5086 34.73 31.9506 35.1694C32.3926 35.6088 32.9905 35.8554 33.6138 35.8554C34.2357 35.8554 34.8322 35.6084 35.272 35.1686C35.7118 34.7288 35.9589 34.1323 35.9589 33.5103V26.6531C35.9505 25.2033 35.5526 23.7823 34.8069 22.5389L34.7383 22.4566C34.2161 21.7998 33.5501 21.2716 32.7916 20.9125C32.0332 20.5535 31.2025 20.3733 30.3635 20.3857C29.435 20.3191 28.5054 20.4997 27.6694 20.9092C26.8335 21.3188 26.121 21.9426 25.6046 22.7171L24.9738 23.636V23.0874C24.9738 22.4655 24.7267 21.869 24.2869 21.4292C23.8471 20.9894 23.2506 20.7423 22.6286 20.7423C22.0066 20.7423 21.4102 20.9894 20.9704 21.4292C20.5306 21.869 20.2835 22.4655 20.2835 23.0874V33.428C20.2835 34.05 20.5306 34.6465 20.9704 35.0863C21.4102 35.5261 22.0066 35.7731 22.6286 35.7731C22.9371 35.775 23.2429 35.7155 23.5282 35.5983C23.8136 35.4811 24.0728 35.3085 24.2909 35.0903C24.5091 34.8722 24.6817 34.6129 24.799 34.3276C24.9162 34.0422 24.9756 33.7365 24.9738 33.428V26.5571C25.8926 24.2257 27.4286 24.0474 27.4286 24.0337Z" fill="black"/>
</g>
<defs>
<clipPath id="clip0_342_3207">
<rect width="48" height="48" fill="white" transform="translate(0 0.5)"/>
</clipPath>
</defs>
</svg>
