<svg width="25" height="34" viewBox="0 0 25 34" fill="none" xmlns="http://www.w3.org/2000/svg">
<path id="Layer 15" d="M10.2246 7.17604V6.62907C10.2246 6.48401 10.2822 6.34488 10.3848 6.24231C10.4874 6.13973 10.6265 6.08211 10.7716 6.08211C10.9166 6.08211 11.0558 6.13973 11.1583 6.24231C11.2609 6.34488 11.3185 6.48401 11.3185 6.62907V7.17604C11.3185 7.3211 11.2609 7.46023 11.1583 7.5628C11.0558 7.66538 10.9017 7.56056 10.7567 7.56056C10.6116 7.56056 10.4874 7.66538 10.3848 7.5628C10.2822 7.46023 10.2246 7.3211 10.2246 7.17604ZM14.068 7.56056C14.2131 7.56056 14.3376 7.66538 14.4401 7.5628C14.5427 7.46023 14.6003 7.3211 14.6003 7.17604V6.62907C14.6003 6.48401 14.5427 6.34488 14.4401 6.24231C14.3376 6.13973 14.1984 6.08211 14.0534 6.08211C13.9083 6.08211 13.7692 6.13973 13.6666 6.24231C13.564 6.34488 13.5064 6.48401 13.5064 6.62907V7.17604C13.5064 7.3211 13.564 7.46023 13.6666 7.5628C13.7692 7.66538 13.923 7.56056 14.068 7.56056ZM12.4125 14.8336C11.252 14.8336 10.139 15.2946 9.31836 16.1152C8.49775 16.9358 8.03674 18.0488 8.03674 19.2093V19.7563C8.03674 19.9013 8.09437 20.0405 8.19694 20.143C8.29952 20.2456 8.24635 19.8599 8.39141 19.8599C8.53648 19.8599 8.8679 20.2456 8.97047 20.143C9.07305 20.0405 9.13067 19.9013 9.13067 19.7563V19.2093C9.13067 18.3389 9.47643 17.5042 10.0919 16.8887C10.7073 16.2733 11.5421 15.9275 12.4125 15.9275C12.5575 15.9275 12.6967 15.8699 12.7992 15.7673C12.9018 15.6647 12.9594 15.5256 12.9594 15.3805C12.9594 15.2355 12.9018 15.0964 12.7992 14.9938C12.6967 14.8912 12.5575 14.8336 12.4125 14.8336ZM14.4581 15.3368C14.3943 15.3025 14.3243 15.2813 14.2522 15.2744C14.1801 15.2674 14.1074 15.2748 14.0382 15.2962C13.969 15.3175 13.9047 15.3524 13.8491 15.3989C13.7935 15.4453 13.7378 15.5364 13.7044 15.6007C13.6369 15.7291 13.6332 15.8448 13.6763 15.9833C13.7193 16.1217 13.8156 16.2374 13.944 16.3049C14.0473 16.3598 14.1477 16.4201 14.2448 16.4854C14.3354 16.5463 14.442 16.5786 14.5511 16.5784C14.6407 16.5785 14.729 16.5567 14.8081 16.5147C14.8873 16.4727 14.9459 16.45 14.9961 16.3758C15.0364 16.3162 15.0736 16.2112 15.088 16.1407C15.1024 16.0702 15.1027 15.9976 15.089 15.927C15.0753 15.8563 15.0478 15.7891 15.008 15.7291C14.9683 15.6692 14.9171 15.6176 14.8574 15.5775C14.7261 15.4899 14.6003 15.4134 14.4581 15.3368ZM15.4755 16.8464C15.4124 16.8817 15.3568 16.9291 15.3122 16.986C15.2675 17.0429 15.2345 17.108 15.2152 17.1777C15.1959 17.2474 15.1906 17.3202 15.1996 17.392C15.2086 17.4637 15.2317 17.533 15.2676 17.5958C15.5479 18.0873 15.695 18.6435 15.6943 19.2093V19.7563C15.6943 19.9013 15.7519 20.0405 15.8545 20.143C15.9571 20.2456 16.2882 19.8599 16.4333 19.8599C16.5784 19.8599 16.5254 20.2456 16.628 20.143C16.7306 20.0405 16.7882 19.9013 16.7882 19.7563V19.2093C16.7945 18.4559 16.6061 17.7135 16.2412 17.0543C16.206 16.9889 16.1579 16.9314 16.0997 16.8853C16.0416 16.8391 15.9747 16.8053 15.903 16.7859C15.8314 16.7664 15.7565 16.7618 15.683 16.7722C15.6095 16.7826 15.5389 16.8078 15.4755 16.8464ZM24.4457 22.5458C24.275 23.9904 23.707 25.3593 22.8048 26.5004V28.5077C22.7998 29.7173 22.3496 30.8827 21.5401 31.7816C20.7307 32.6804 19.6186 33.2497 18.4161 33.3809C17.2137 33.5121 16.005 33.196 15.0207 32.4929C14.0365 31.7898 13.3455 30.7489 13.0798 29.5689C12.8555 29.5689 12.6367 29.6017 12.4125 29.6017C12.1882 29.6017 11.9694 29.6017 11.7452 29.5689C11.4794 30.7489 10.7885 31.7898 9.80421 32.4929C8.81995 33.196 7.61128 33.5121 6.40881 33.3809C5.20635 33.2497 4.09428 32.6804 3.28481 31.7816C2.47534 30.8827 2.02514 29.7173 2.02011 28.5077V26.5004C1.11798 25.3593 0.54997 23.9904 0.379205 22.5458C-0.0255508 18.4928 3.06481 14.3413 8.13519 11.9456C7.02301 10.8213 6.39816 9.30442 6.39584 7.72301C6.39844 7.47796 6.41487 7.23326 6.44507 6.99007C5.79305 6.77638 5.22543 6.36174 4.82355 5.80561C4.42168 5.24947 4.20619 4.58038 4.20797 3.89424C4.2157 3.19233 4.44828 2.5114 4.87156 1.95143C5.29484 1.39147 5.88651 0.981968 6.55969 0.783074C7.23287 0.584181 7.95208 0.606371 8.61172 0.846387C9.27136 1.0864 9.83666 1.5316 10.2246 2.1166C11.6206 1.56951 13.1716 1.56951 14.5675 2.1166C14.849 1.67181 15.2334 1.30128 15.6882 1.03625C16.143 0.771231 16.6549 0.619499 17.1807 0.593861C17.7065 0.568223 18.2307 0.669433 18.7091 0.888948C19.1875 1.10846 19.6062 1.43984 19.9296 1.85513C20.2531 2.27041 20.4719 2.7574 20.5676 3.27502C20.6633 3.79263 20.6331 4.32568 20.4796 4.82917C20.326 5.33266 20.0536 5.79183 19.6853 6.16792C19.317 6.54401 18.8636 6.82599 18.3635 6.99007C18.3992 7.23295 18.4211 7.47765 18.4291 7.72301C18.4268 9.30442 17.8019 10.8213 16.6898 11.9456C21.7601 14.3194 24.8505 18.4928 24.4457 22.5458ZM15.5685 2.60887C16.7913 3.36172 17.7064 4.525 18.1502 5.89067C18.4711 5.76879 18.7589 5.57308 18.9902 5.31938C19.2215 5.06568 19.3899 4.7611 19.4817 4.43027C19.5735 4.09945 19.5861 3.75166 19.5186 3.41504C19.4511 3.07842 19.3053 2.76242 19.093 2.49258C18.8808 2.22274 18.608 2.00665 18.2967 1.86177C17.9854 1.7169 17.6445 1.64731 17.3013 1.65863C16.9582 1.66995 16.6225 1.76186 16.3215 1.92694C16.0205 2.09202 15.7625 2.32562 15.5685 2.60887ZM6.67479 5.89067C7.11858 4.525 8.03369 3.36172 9.25648 2.60887C9.06245 2.32562 8.80449 2.09202 8.50346 1.92694C8.20243 1.76186 7.86677 1.66995 7.52363 1.65863C7.18049 1.64731 6.83951 1.7169 6.52825 1.86177C6.21699 2.00665 5.9442 2.22274 5.73192 2.49258C5.51965 2.76242 5.37386 3.07842 5.30634 3.41504C5.23883 3.75166 5.25148 4.09945 5.34327 4.43027C5.43507 4.7611 5.60343 5.06568 5.83474 5.31938C6.06606 5.57308 6.35383 5.76879 6.67479 5.89067ZM7.48977 7.72301C7.49035 8.93348 7.93689 10.1013 8.74409 11.0033C9.55128 11.9054 10.6625 12.4784 11.8655 12.6129V10.8517C11.657 10.7313 11.494 10.5454 11.4018 10.3229C11.3097 10.1004 11.2935 9.85376 11.3558 9.62115C11.4181 9.38854 11.5555 9.183 11.7465 9.03641C11.9376 8.88981 12.1717 9.21804 12.4125 9.21804C12.6533 9.21804 12.8874 8.88981 13.0784 9.03641C13.2695 9.183 13.4068 9.38854 13.4691 9.62115C13.5315 9.85376 13.5153 10.1004 13.4231 10.3229C13.331 10.5454 13.168 10.7313 12.9594 10.8517V12.6129C13.9039 12.5073 14.7977 12.1305 15.5328 11.5281C16.2678 10.9257 16.8128 10.1234 17.1019 9.21804C17.391 8.31269 17.4118 7.343 17.1619 6.42607C16.912 5.50913 16.4019 4.68415 15.6934 4.05073C14.9849 3.4173 14.1081 3.00252 13.169 2.85645C12.2299 2.71039 11.2686 2.83929 10.4012 3.22759C9.53374 3.6159 8.79725 4.247 8.28062 5.04471C7.76399 5.84241 7.48932 6.77262 7.48977 7.72301ZM10.7716 25.7729C10.7716 24.7575 10.3682 23.7836 9.65015 23.0656C8.93212 22.3475 7.98771 22.6982 6.97226 22.6982C5.95681 22.6982 4.95349 22.3475 4.23546 23.0656C3.51743 23.7836 3.11404 24.7575 3.11404 25.7729V28.5077C3.11404 29.5232 3.51743 30.4971 4.23546 31.2151C4.95349 31.9331 5.95681 31.6862 6.97226 31.6862C7.98771 31.6862 8.93212 31.9331 9.65015 31.2151C10.3682 30.4971 10.7716 29.5232 10.7716 28.5077V25.7729ZM12.9594 28.5077V26.8668C12.5966 26.9179 12.2284 26.9179 11.8655 26.8668V28.5077C12.2296 28.5351 12.5953 28.5351 12.9594 28.5077ZM21.7109 25.7729C21.7109 24.7575 21.3075 23.7836 20.5895 23.0656C19.8715 22.3475 18.8976 22.6982 17.8821 22.6982C16.8667 22.6982 15.8928 22.3475 15.1748 23.0656C14.4568 23.7836 14.0534 24.7575 14.0534 25.7729V28.5077C14.0534 29.5232 14.4568 30.4971 15.1748 31.2151C15.8928 31.9331 16.8667 31.6862 17.8821 31.6862C18.8976 31.6862 19.8715 31.9331 20.5895 31.2151C21.3075 30.4971 21.7109 29.5232 21.7109 28.5077V25.7729ZM15.7544 12.7223C14.7652 13.3831 13.6022 13.7358 12.4125 13.7358C11.2228 13.7358 10.0598 13.3831 9.07051 12.7223C4.20797 14.8336 1.1012 18.7881 1.47314 22.4364C1.55147 23.2209 1.78184 23.9826 2.15138 24.679C2.31727 23.9741 2.63662 23.3146 3.08665 22.7473C3.53668 22.1801 4.10631 21.7191 4.75494 21.3972V18.8428C4.75636 18.175 4.84087 17.5098 5.00654 16.8628C5.04378 16.723 5.13491 16.6036 5.25998 16.5308C5.38505 16.458 5.39419 17.3078 5.53416 17.3445C5.6039 17.3624 5.80911 16.5238 5.86667 16.567C5.92424 16.6102 5.9727 16.6644 6.00929 16.7264C6.04587 16.7884 6.06986 16.857 6.07988 16.9283C6.0899 16.9995 6.08574 17.0721 6.06766 17.1418C5.92101 17.6969 5.84746 18.2687 5.84887 18.8428V20.976C6.20747 20.8922 6.57454 20.85 6.94281 20.8502C8.23897 20.8501 9.48286 21.3613 10.4045 22.2726C11.3261 23.184 11.8511 24.4221 11.8655 25.7182C12.2272 25.7839 12.5978 25.7839 12.9594 25.7182C12.9738 24.4221 13.4988 23.184 14.4205 22.2726C15.3421 21.3613 16.586 20.8501 17.8821 20.8502C18.2504 20.85 18.6175 20.8922 18.9761 20.976V18.8428C18.9766 18.2745 18.9049 17.7084 18.7628 17.1582C18.7265 17.0175 18.7476 16.8681 18.8215 16.743C18.8953 16.6178 19.2271 17.1945 19.3678 17.1582C19.5085 17.1219 19.4466 16.4757 19.5718 16.5496C19.6969 16.6234 19.7876 16.744 19.8239 16.8847C19.988 17.5245 20.0707 18.1824 20.07 18.8428V21.3972C20.7186 21.7191 21.2883 22.1801 21.7383 22.7473C22.1883 23.3146 22.5077 23.9741 22.6736 24.679C23.0431 23.9826 23.2735 23.2209 23.3518 22.4364C23.7237 18.7881 20.617 14.8336 15.7544 12.7223ZM9.13067 26.3199V28.5077C9.13067 29.088 8.90017 29.6445 8.48986 30.0548C8.07956 30.4651 7.52306 30.6956 6.94281 30.6956C6.36255 30.6956 5.80606 30.4651 5.39575 30.0548C4.98545 29.6445 4.75494 29.088 4.75494 28.5077V26.3199C4.75494 25.7396 4.98545 25.1831 5.39575 24.7728C5.80606 24.3625 6.36255 24.132 6.94281 24.132C7.52306 24.132 8.07956 24.3625 8.48986 24.7728C8.90017 25.1831 9.13067 25.7396 9.13067 26.3199ZM8.03674 26.3199C8.03674 26.0298 7.92149 25.7515 7.71633 25.5464C7.51118 25.3412 7.23294 26.9649 6.94281 26.9649C6.65268 26.9649 6.37443 25.3412 6.16928 25.5464C5.96413 25.7515 5.84887 26.0298 5.84887 26.3199V28.5077C5.84887 28.7979 5.96413 29.0761 6.16928 29.2813C6.37443 29.4864 6.65268 27.9018 6.94281 27.9018C7.23294 27.9018 7.51118 29.4864 7.71633 29.2813C7.92149 29.0761 8.03674 28.7979 8.03674 28.5077V26.3199ZM20.07 26.3199V28.5077C20.07 29.088 19.8395 29.6445 19.4292 30.0548C19.0189 30.4651 18.4624 30.6956 17.8821 30.6956C17.3019 30.6956 16.7454 30.4651 16.3351 30.0548C15.9248 29.6445 15.6943 29.088 15.6943 28.5077V26.3199C15.6943 25.7396 15.9248 25.1831 16.3351 24.7728C16.7454 24.3625 17.3019 24.132 17.8821 24.132C18.4624 24.132 19.0189 24.3625 19.4292 24.7728C19.8395 25.1831 20.07 25.7396 20.07 26.3199ZM18.9761 26.3199C18.9761 26.0298 18.8608 25.7515 18.6557 25.5464C18.4505 25.3412 18.1723 26.8668 17.8821 26.8668C17.592 26.8668 17.3138 25.3412 17.1086 25.5464C16.9035 25.7515 16.7882 26.0298 16.7882 26.3199V28.5077C16.7882 28.7979 16.9035 29.0761 17.1086 29.2813C17.3138 29.4864 17.592 27.8623 17.8821 27.8623C18.1723 27.8623 18.4505 29.4864 18.6557 29.2813C18.8608 29.0761 18.9761 28.7979 18.9761 28.5077V26.3199Z" fill="#DE611A"/>
</svg>
