<svg width="147" height="31" viewBox="0 0 147 31" fill="none" xmlns="http://www.w3.org/2000/svg">
<mask id="path-1-outside-1_247_6940" maskUnits="userSpaceOnUse" x="3.65039" y="0.223633" width="23" height="30" fill="black">
<rect fill="white" x="3.65039" y="0.223633" width="23" height="30"/>
<path d="M13.2465 6.95333V6.47749C13.2465 6.35128 13.2966 6.23025 13.3858 6.14101C13.4751 6.05177 13.5961 6.00164 13.7223 6.00164C13.8485 6.00164 13.9695 6.05177 14.0588 6.14101C14.148 6.23025 14.1982 6.35128 14.1982 6.47749V6.95333C14.1982 7.07954 14.148 7.20057 14.0588 7.28981C13.9695 7.37904 13.8355 7.28785 13.7093 7.28785C13.5831 7.28785 13.4751 7.37904 13.3858 7.28981C13.2966 7.20057 13.2465 7.07954 13.2465 6.95333ZM16.5901 7.28785C16.7163 7.28785 16.8246 7.37904 16.9139 7.28981C17.0031 7.20057 17.0532 7.07954 17.0532 6.95333V6.47749C17.0532 6.35128 17.0031 6.23025 16.9139 6.14101C16.8246 6.05177 16.7036 6.00164 16.5774 6.00164C16.4512 6.00164 16.3301 6.05177 16.2409 6.14101C16.1517 6.23025 16.1015 6.35128 16.1015 6.47749V6.95333C16.1015 7.07954 16.1517 7.20057 16.2409 7.28981C16.3301 7.37904 16.4639 7.28785 16.5901 7.28785ZM15.1498 13.6152C14.1402 13.6152 13.172 14.0162 12.4581 14.7302C11.7441 15.4441 11.3431 16.4123 11.3431 17.4219V17.8978C11.3431 18.024 11.3932 18.145 11.4824 18.2343C11.5717 18.3235 11.5254 17.988 11.6516 17.988C11.7778 17.988 12.0662 18.3235 12.1554 18.2343C12.2446 18.145 12.2948 18.024 12.2948 17.8978V17.4219C12.2948 16.6647 12.5956 15.9385 13.131 15.4031C13.6664 14.8677 14.3926 14.5669 15.1498 14.5669C15.276 14.5669 15.3971 14.5167 15.4863 14.4275C15.5756 14.3383 15.6257 14.2172 15.6257 14.091C15.6257 13.9648 15.5756 13.8438 15.4863 13.7545C15.3971 13.6653 15.276 13.6152 15.1498 13.6152ZM16.9295 14.053C16.874 14.0232 16.8131 14.0047 16.7504 13.9986C16.6877 13.9926 16.6244 13.999 16.5642 14.0176C16.504 14.0362 16.448 14.0666 16.3997 14.1069C16.3513 14.1473 16.3028 14.2267 16.2737 14.2826C16.2151 14.3943 16.2118 14.4949 16.2493 14.6154C16.2868 14.7358 16.3705 14.8365 16.4822 14.8952C16.5721 14.943 16.6595 14.9954 16.7439 15.0522C16.8227 15.1052 16.9155 15.1333 17.0104 15.1331C17.0883 15.1332 17.1651 15.1142 17.234 15.0777C17.3029 15.0412 17.3539 15.0214 17.3975 14.9568C17.4326 14.905 17.4649 14.8137 17.4774 14.7523C17.49 14.691 17.4903 14.6278 17.4783 14.5664C17.4664 14.5049 17.4425 14.4465 17.4079 14.3943C17.3733 14.3421 17.3288 14.2973 17.2769 14.2623C17.1627 14.1862 17.0532 14.1196 16.9295 14.053ZM17.8146 15.3663C17.7597 15.397 17.7114 15.4382 17.6725 15.4877C17.6336 15.5372 17.605 15.5939 17.5881 15.6545C17.5713 15.7151 17.5667 15.7785 17.5745 15.8409C17.5824 15.9033 17.6025 15.9636 17.6338 16.0182C17.8776 16.4458 18.0055 16.9297 18.0049 17.4219V17.8978C18.0049 18.024 18.0551 18.145 18.1443 18.2343C18.2335 18.3235 18.5217 17.988 18.6479 17.988C18.7741 17.988 18.728 18.3235 18.8172 18.2343C18.9065 18.145 18.9566 18.024 18.9566 17.8978V17.4219C18.9621 16.7665 18.7982 16.1207 18.4808 15.5471C18.4501 15.4903 18.4082 15.4402 18.3577 15.4001C18.3071 15.3599 18.2488 15.3305 18.1865 15.3136C18.1242 15.2967 18.0591 15.2926 17.9951 15.3017C17.9312 15.3107 17.8698 15.3327 17.8146 15.3663ZM25.6185 20.3246C25.4699 21.5813 24.9757 22.7722 24.1909 23.765V25.5113C24.1865 26.5636 23.7949 27.5775 23.0907 28.3595C22.3864 29.1414 21.419 29.6367 20.3729 29.7509C19.3268 29.865 18.2752 29.59 17.419 28.9783C16.5627 28.3666 15.9616 27.4611 15.7304 26.4345C15.5353 26.4345 15.3449 26.463 15.1498 26.463C14.9547 26.463 14.7644 26.463 14.5693 26.4345C14.3381 27.4611 13.737 28.3666 12.8807 28.9783C12.0245 29.59 10.9729 29.865 9.92682 29.7509C8.88071 29.6367 7.91325 29.1414 7.20903 28.3595C6.50481 27.5775 6.11315 26.5636 6.10877 25.5113V23.765C5.32395 22.7722 4.8298 21.5813 4.68124 20.3246C4.32911 16.7986 7.01764 13.1869 11.4287 11.1027C10.4612 10.1246 9.91756 8.80497 9.91554 7.42918C9.9178 7.216 9.9321 7.00311 9.95837 6.79154C9.39113 6.60564 8.89731 6.24492 8.54769 5.76109C8.19807 5.27727 8.01061 4.69518 8.01216 4.09826C8.01888 3.48762 8.22122 2.89523 8.58946 2.40807C8.9577 1.92092 9.47244 1.56466 10.0581 1.39163C10.6437 1.2186 11.2694 1.2379 11.8433 1.44671C12.4172 1.65552 12.909 2.04283 13.2465 2.55176C14.4609 2.07581 15.8102 2.07581 17.0247 2.55176C17.2696 2.16481 17.604 1.84245 17.9997 1.61189C18.3953 1.38133 18.8407 1.24933 19.2981 1.22702C19.7555 1.20472 20.2115 1.29277 20.6277 1.48374C21.044 1.67471 21.4081 1.963 21.6896 2.32429C21.971 2.68557 22.1613 3.10924 22.2446 3.55955C22.3279 4.00986 22.3016 4.4736 22.168 4.91162C22.0344 5.34965 21.7974 5.74911 21.477 6.0763C21.1566 6.40349 20.7622 6.6488 20.327 6.79154C20.3581 7.00284 20.3772 7.21573 20.3841 7.42918C20.3821 8.80497 19.8385 10.1246 18.871 11.1027C23.282 13.1679 25.9706 16.7986 25.6185 20.3246ZM17.8955 2.98002C18.9593 3.63498 19.7554 4.647 20.1415 5.83509C20.4207 5.72906 20.671 5.5588 20.8723 5.33809C21.0735 5.11738 21.22 4.8524 21.2999 4.56459C21.3797 4.27678 21.3907 3.97422 21.332 3.68137C21.2732 3.38852 21.1464 3.11361 20.9617 2.87885C20.7771 2.6441 20.5397 2.45611 20.269 2.33007C19.9982 2.20403 19.7015 2.14349 19.403 2.15334C19.1045 2.16319 18.8125 2.24315 18.5506 2.38676C18.2887 2.53038 18.0643 2.73361 17.8955 2.98002ZM10.1582 5.83509C10.5443 4.647 11.3404 3.63498 12.4042 2.98002C12.2354 2.73361 12.011 2.53038 11.7491 2.38676C11.4872 2.24315 11.1952 2.16319 10.8967 2.15334C10.5982 2.14349 10.3015 2.20403 10.0307 2.33007C9.75995 2.45611 9.52262 2.6441 9.33795 2.87885C9.15328 3.11361 9.02645 3.38852 8.96771 3.68137C8.90897 3.97422 8.91998 4.27678 8.99983 4.56459C9.07969 4.8524 9.22616 5.11738 9.4274 5.33809C9.62864 5.5588 9.87899 5.72906 10.1582 5.83509ZM10.8672 7.42918C10.8677 8.48225 11.2562 9.49823 11.9585 10.283C12.6607 11.0677 13.6274 11.5662 14.674 11.6832V10.151C14.4926 10.0463 14.3508 9.88458 14.2706 9.69102C14.1904 9.49747 14.1764 9.28287 14.2306 9.08051C14.2848 8.87815 14.4043 8.69934 14.5705 8.5718C14.7367 8.44427 14.9403 8.72982 15.1498 8.72982C15.3593 8.72982 15.563 8.44427 15.7292 8.5718C15.8954 8.69934 16.0149 8.87815 16.0691 9.08051C16.1233 9.28287 16.1093 9.49747 16.0291 9.69102C15.9489 9.88458 15.8071 10.0463 15.6257 10.151V11.6832C16.4474 11.5914 17.2249 11.2636 17.8644 10.7395C18.5039 10.2154 18.978 9.51745 19.2295 8.72982C19.481 7.94218 19.4991 7.09859 19.2817 6.30088C19.0643 5.50317 18.6206 4.78546 18.0042 4.2344C17.3878 3.68334 16.625 3.32248 15.808 3.19541C14.991 3.06834 14.1547 3.18048 13.4001 3.5183C12.6454 3.85611 12.0047 4.40515 11.5552 5.09913C11.1058 5.79312 10.8668 6.60237 10.8672 7.42918ZM13.7223 23.1321C13.7223 22.2487 13.3714 21.4014 12.7467 20.7768C12.122 20.1521 11.3004 20.4572 10.417 20.4572C9.53359 20.4572 8.66074 20.1521 8.03607 20.7768C7.4114 21.4014 7.06046 22.2487 7.06046 23.1321V25.5113C7.06046 26.3947 7.4114 27.242 8.03607 27.8666C8.66074 28.4913 9.53359 28.2765 10.417 28.2765C11.3004 28.2765 12.122 28.4913 12.7467 27.8666C13.3714 27.242 13.7223 26.3947 13.7223 25.5113V23.1321ZM15.6257 25.5113V24.0838C15.31 24.1282 14.9897 24.1282 14.674 24.0838V25.5113C14.9908 25.5351 15.3089 25.5351 15.6257 25.5113ZM23.2392 23.1321C23.2392 22.2487 22.8883 21.4014 22.2636 20.7768C21.639 20.1521 20.7917 20.4572 19.9083 20.4572C19.0249 20.4572 18.1777 20.1521 17.553 20.7768C16.9283 21.4014 16.5774 22.2487 16.5774 23.1321V25.5113C16.5774 26.3947 16.9283 27.242 17.553 27.8666C18.1777 28.4913 19.0249 28.2765 19.9083 28.2765C20.7917 28.2765 21.639 28.4913 22.2636 27.8666C22.8883 27.242 23.2392 26.3947 23.2392 25.5113V23.1321ZM18.0573 11.7784C17.1966 12.3533 16.1848 12.6601 15.1498 12.6601C14.1148 12.6601 13.1031 12.3533 12.2424 11.7784C8.01216 13.6152 5.30935 17.0555 5.63293 20.2294C5.70108 20.9119 5.90149 21.5746 6.22298 22.1804C6.3673 21.5672 6.64512 20.9934 7.03664 20.4999C7.42815 20.0064 7.92371 19.6053 8.488 19.3253V17.1031C8.48924 16.5221 8.56276 15.9434 8.70689 15.3806C8.73928 15.2589 8.81856 15.155 8.92737 15.0917C9.03618 15.0284 9.04413 15.7677 9.16591 15.7996C9.22658 15.8152 9.4051 15.0856 9.45518 15.1232C9.50526 15.1608 9.54742 15.2079 9.57925 15.2619C9.61108 15.3158 9.63195 15.3755 9.64066 15.4375C9.64938 15.4995 9.64576 15.5626 9.63003 15.6232C9.50245 16.1062 9.43847 16.6037 9.43969 17.1031V18.9589C9.75166 18.886 10.071 18.8493 10.3914 18.8495C11.519 18.8494 12.6012 19.2941 13.403 20.087C14.2047 20.8798 14.6615 21.957 14.674 23.0845C14.9887 23.1416 15.311 23.1416 15.6257 23.0845C15.6382 21.957 16.0949 20.8798 16.8967 20.087C17.6985 19.2941 18.7807 18.8494 19.9083 18.8495C20.2287 18.8493 20.548 18.886 20.86 18.9589V17.1031C20.8604 16.6087 20.7981 16.1162 20.6744 15.6375C20.6429 15.5151 20.6612 15.3852 20.7255 15.2763C20.7897 15.1674 21.0784 15.6691 21.2008 15.6375C21.3232 15.606 21.2694 15.0438 21.3782 15.1081C21.4871 15.1723 21.566 15.2772 21.5976 15.3996C21.7404 15.9562 21.8123 16.5285 21.8117 17.1031V19.3253C22.376 19.6053 22.8715 20.0064 23.2631 20.4999C23.6546 20.9934 23.9324 21.5672 24.0767 22.1804C24.3982 21.5746 24.5986 20.9119 24.6668 20.2294C24.9903 17.0555 22.2875 13.6152 18.0573 11.7784ZM12.2948 23.6079V25.5113C12.2948 26.0161 12.0942 26.5003 11.7373 26.8572C11.3803 27.2142 10.8962 27.4147 10.3914 27.4147C9.88658 27.4147 9.40244 27.2142 9.04549 26.8572C8.68854 26.5003 8.488 26.0161 8.488 25.5113V23.6079C8.488 23.1031 8.68854 22.619 9.04549 22.262C9.40244 21.9051 9.88658 21.7046 10.3914 21.7046C10.8962 21.7046 11.3803 21.9051 11.7373 22.262C12.0942 22.619 12.2948 23.1031 12.2948 23.6079ZM11.3431 23.6079C11.3431 23.3555 11.2428 23.1135 11.0643 22.935C10.8859 22.7565 10.6438 24.1691 10.3914 24.1691C10.139 24.1691 9.89691 22.7565 9.71844 22.935C9.53996 23.1135 9.43969 23.3555 9.43969 23.6079V25.5113C9.43969 25.7637 9.53996 26.0058 9.71844 26.1843C9.89691 26.3627 10.139 24.9842 10.3914 24.9842C10.6438 24.9842 10.8859 26.3627 11.0643 26.1843C11.2428 26.0058 11.3431 25.7637 11.3431 25.5113V23.6079ZM21.8117 23.6079V25.5113C21.8117 26.0161 21.6111 26.5003 21.2542 26.8572C20.8972 27.2142 20.4131 27.4147 19.9083 27.4147C19.4035 27.4147 18.9194 27.2142 18.5624 26.8572C18.2055 26.5003 18.0049 26.0161 18.0049 25.5113V23.6079C18.0049 23.1031 18.2055 22.619 18.5624 22.262C18.9194 21.9051 19.4035 21.7046 19.9083 21.7046C20.4131 21.7046 20.8972 21.9051 21.2542 22.262C21.6111 22.619 21.8117 23.1031 21.8117 23.6079ZM20.86 23.6079C20.86 23.3555 20.7597 23.1135 20.5812 22.935C20.4028 22.7565 20.1607 24.0838 19.9083 24.0838C19.6559 24.0838 19.4138 22.7565 19.2354 22.935C19.0569 23.1135 18.9566 23.3555 18.9566 23.6079V25.5113C18.9566 25.7637 19.0569 26.0058 19.2354 26.1843C19.4138 26.3627 19.6559 24.9498 19.9083 24.9498C20.1607 24.9498 20.4028 26.3627 20.5812 26.1843C20.7597 26.0058 20.86 25.7637 20.86 25.5113V23.6079Z"/>
</mask>
<path d="M13.2465 6.95333V6.47749C13.2465 6.35128 13.2966 6.23025 13.3858 6.14101C13.4751 6.05177 13.5961 6.00164 13.7223 6.00164C13.8485 6.00164 13.9695 6.05177 14.0588 6.14101C14.148 6.23025 14.1982 6.35128 14.1982 6.47749V6.95333C14.1982 7.07954 14.148 7.20057 14.0588 7.28981C13.9695 7.37904 13.8355 7.28785 13.7093 7.28785C13.5831 7.28785 13.4751 7.37904 13.3858 7.28981C13.2966 7.20057 13.2465 7.07954 13.2465 6.95333ZM16.5901 7.28785C16.7163 7.28785 16.8246 7.37904 16.9139 7.28981C17.0031 7.20057 17.0532 7.07954 17.0532 6.95333V6.47749C17.0532 6.35128 17.0031 6.23025 16.9139 6.14101C16.8246 6.05177 16.7036 6.00164 16.5774 6.00164C16.4512 6.00164 16.3301 6.05177 16.2409 6.14101C16.1517 6.23025 16.1015 6.35128 16.1015 6.47749V6.95333C16.1015 7.07954 16.1517 7.20057 16.2409 7.28981C16.3301 7.37904 16.4639 7.28785 16.5901 7.28785ZM15.1498 13.6152C14.1402 13.6152 13.172 14.0162 12.4581 14.7302C11.7441 15.4441 11.3431 16.4123 11.3431 17.4219V17.8978C11.3431 18.024 11.3932 18.145 11.4824 18.2343C11.5717 18.3235 11.5254 17.988 11.6516 17.988C11.7778 17.988 12.0662 18.3235 12.1554 18.2343C12.2446 18.145 12.2948 18.024 12.2948 17.8978V17.4219C12.2948 16.6647 12.5956 15.9385 13.131 15.4031C13.6664 14.8677 14.3926 14.5669 15.1498 14.5669C15.276 14.5669 15.3971 14.5167 15.4863 14.4275C15.5756 14.3383 15.6257 14.2172 15.6257 14.091C15.6257 13.9648 15.5756 13.8438 15.4863 13.7545C15.3971 13.6653 15.276 13.6152 15.1498 13.6152ZM16.9295 14.053C16.874 14.0232 16.8131 14.0047 16.7504 13.9986C16.6877 13.9926 16.6244 13.999 16.5642 14.0176C16.504 14.0362 16.448 14.0666 16.3997 14.1069C16.3513 14.1473 16.3028 14.2267 16.2737 14.2826C16.2151 14.3943 16.2118 14.4949 16.2493 14.6154C16.2868 14.7358 16.3705 14.8365 16.4822 14.8952C16.5721 14.943 16.6595 14.9954 16.7439 15.0522C16.8227 15.1052 16.9155 15.1333 17.0104 15.1331C17.0883 15.1332 17.1651 15.1142 17.234 15.0777C17.3029 15.0412 17.3539 15.0214 17.3975 14.9568C17.4326 14.905 17.4649 14.8137 17.4774 14.7523C17.49 14.691 17.4903 14.6278 17.4783 14.5664C17.4664 14.5049 17.4425 14.4465 17.4079 14.3943C17.3733 14.3421 17.3288 14.2973 17.2769 14.2623C17.1627 14.1862 17.0532 14.1196 16.9295 14.053ZM17.8146 15.3663C17.7597 15.397 17.7114 15.4382 17.6725 15.4877C17.6336 15.5372 17.605 15.5939 17.5881 15.6545C17.5713 15.7151 17.5667 15.7785 17.5745 15.8409C17.5824 15.9033 17.6025 15.9636 17.6338 16.0182C17.8776 16.4458 18.0055 16.9297 18.0049 17.4219V17.8978C18.0049 18.024 18.0551 18.145 18.1443 18.2343C18.2335 18.3235 18.5217 17.988 18.6479 17.988C18.7741 17.988 18.728 18.3235 18.8172 18.2343C18.9065 18.145 18.9566 18.024 18.9566 17.8978V17.4219C18.9621 16.7665 18.7982 16.1207 18.4808 15.5471C18.4501 15.4903 18.4082 15.4402 18.3577 15.4001C18.3071 15.3599 18.2488 15.3305 18.1865 15.3136C18.1242 15.2967 18.0591 15.2926 17.9951 15.3017C17.9312 15.3107 17.8698 15.3327 17.8146 15.3663ZM25.6185 20.3246C25.4699 21.5813 24.9757 22.7722 24.1909 23.765V25.5113C24.1865 26.5636 23.7949 27.5775 23.0907 28.3595C22.3864 29.1414 21.419 29.6367 20.3729 29.7509C19.3268 29.865 18.2752 29.59 17.419 28.9783C16.5627 28.3666 15.9616 27.4611 15.7304 26.4345C15.5353 26.4345 15.3449 26.463 15.1498 26.463C14.9547 26.463 14.7644 26.463 14.5693 26.4345C14.3381 27.4611 13.737 28.3666 12.8807 28.9783C12.0245 29.59 10.9729 29.865 9.92682 29.7509C8.88071 29.6367 7.91325 29.1414 7.20903 28.3595C6.50481 27.5775 6.11315 26.5636 6.10877 25.5113V23.765C5.32395 22.7722 4.8298 21.5813 4.68124 20.3246C4.32911 16.7986 7.01764 13.1869 11.4287 11.1027C10.4612 10.1246 9.91756 8.80497 9.91554 7.42918C9.9178 7.216 9.9321 7.00311 9.95837 6.79154C9.39113 6.60564 8.89731 6.24492 8.54769 5.76109C8.19807 5.27727 8.01061 4.69518 8.01216 4.09826C8.01888 3.48762 8.22122 2.89523 8.58946 2.40807C8.9577 1.92092 9.47244 1.56466 10.0581 1.39163C10.6437 1.2186 11.2694 1.2379 11.8433 1.44671C12.4172 1.65552 12.909 2.04283 13.2465 2.55176C14.4609 2.07581 15.8102 2.07581 17.0247 2.55176C17.2696 2.16481 17.604 1.84245 17.9997 1.61189C18.3953 1.38133 18.8407 1.24933 19.2981 1.22702C19.7555 1.20472 20.2115 1.29277 20.6277 1.48374C21.044 1.67471 21.4081 1.963 21.6896 2.32429C21.971 2.68557 22.1613 3.10924 22.2446 3.55955C22.3279 4.00986 22.3016 4.4736 22.168 4.91162C22.0344 5.34965 21.7974 5.74911 21.477 6.0763C21.1566 6.40349 20.7622 6.6488 20.327 6.79154C20.3581 7.00284 20.3772 7.21573 20.3841 7.42918C20.3821 8.80497 19.8385 10.1246 18.871 11.1027C23.282 13.1679 25.9706 16.7986 25.6185 20.3246ZM17.8955 2.98002C18.9593 3.63498 19.7554 4.647 20.1415 5.83509C20.4207 5.72906 20.671 5.5588 20.8723 5.33809C21.0735 5.11738 21.22 4.8524 21.2999 4.56459C21.3797 4.27678 21.3907 3.97422 21.332 3.68137C21.2732 3.38852 21.1464 3.11361 20.9617 2.87885C20.7771 2.6441 20.5397 2.45611 20.269 2.33007C19.9982 2.20403 19.7015 2.14349 19.403 2.15334C19.1045 2.16319 18.8125 2.24315 18.5506 2.38676C18.2887 2.53038 18.0643 2.73361 17.8955 2.98002ZM10.1582 5.83509C10.5443 4.647 11.3404 3.63498 12.4042 2.98002C12.2354 2.73361 12.011 2.53038 11.7491 2.38676C11.4872 2.24315 11.1952 2.16319 10.8967 2.15334C10.5982 2.14349 10.3015 2.20403 10.0307 2.33007C9.75995 2.45611 9.52262 2.6441 9.33795 2.87885C9.15328 3.11361 9.02645 3.38852 8.96771 3.68137C8.90897 3.97422 8.91998 4.27678 8.99983 4.56459C9.07969 4.8524 9.22616 5.11738 9.4274 5.33809C9.62864 5.5588 9.87899 5.72906 10.1582 5.83509ZM10.8672 7.42918C10.8677 8.48225 11.2562 9.49823 11.9585 10.283C12.6607 11.0677 13.6274 11.5662 14.674 11.6832V10.151C14.4926 10.0463 14.3508 9.88458 14.2706 9.69102C14.1904 9.49747 14.1764 9.28287 14.2306 9.08051C14.2848 8.87815 14.4043 8.69934 14.5705 8.5718C14.7367 8.44427 14.9403 8.72982 15.1498 8.72982C15.3593 8.72982 15.563 8.44427 15.7292 8.5718C15.8954 8.69934 16.0149 8.87815 16.0691 9.08051C16.1233 9.28287 16.1093 9.49747 16.0291 9.69102C15.9489 9.88458 15.8071 10.0463 15.6257 10.151V11.6832C16.4474 11.5914 17.2249 11.2636 17.8644 10.7395C18.5039 10.2154 18.978 9.51745 19.2295 8.72982C19.481 7.94218 19.4991 7.09859 19.2817 6.30088C19.0643 5.50317 18.6206 4.78546 18.0042 4.2344C17.3878 3.68334 16.625 3.32248 15.808 3.19541C14.991 3.06834 14.1547 3.18048 13.4001 3.5183C12.6454 3.85611 12.0047 4.40515 11.5552 5.09913C11.1058 5.79312 10.8668 6.60237 10.8672 7.42918ZM13.7223 23.1321C13.7223 22.2487 13.3714 21.4014 12.7467 20.7768C12.122 20.1521 11.3004 20.4572 10.417 20.4572C9.53359 20.4572 8.66074 20.1521 8.03607 20.7768C7.4114 21.4014 7.06046 22.2487 7.06046 23.1321V25.5113C7.06046 26.3947 7.4114 27.242 8.03607 27.8666C8.66074 28.4913 9.53359 28.2765 10.417 28.2765C11.3004 28.2765 12.122 28.4913 12.7467 27.8666C13.3714 27.242 13.7223 26.3947 13.7223 25.5113V23.1321ZM15.6257 25.5113V24.0838C15.31 24.1282 14.9897 24.1282 14.674 24.0838V25.5113C14.9908 25.5351 15.3089 25.5351 15.6257 25.5113ZM23.2392 23.1321C23.2392 22.2487 22.8883 21.4014 22.2636 20.7768C21.639 20.1521 20.7917 20.4572 19.9083 20.4572C19.0249 20.4572 18.1777 20.1521 17.553 20.7768C16.9283 21.4014 16.5774 22.2487 16.5774 23.1321V25.5113C16.5774 26.3947 16.9283 27.242 17.553 27.8666C18.1777 28.4913 19.0249 28.2765 19.9083 28.2765C20.7917 28.2765 21.639 28.4913 22.2636 27.8666C22.8883 27.242 23.2392 26.3947 23.2392 25.5113V23.1321ZM18.0573 11.7784C17.1966 12.3533 16.1848 12.6601 15.1498 12.6601C14.1148 12.6601 13.1031 12.3533 12.2424 11.7784C8.01216 13.6152 5.30935 17.0555 5.63293 20.2294C5.70108 20.9119 5.90149 21.5746 6.22298 22.1804C6.3673 21.5672 6.64512 20.9934 7.03664 20.4999C7.42815 20.0064 7.92371 19.6053 8.488 19.3253V17.1031C8.48924 16.5221 8.56276 15.9434 8.70689 15.3806C8.73928 15.2589 8.81856 15.155 8.92737 15.0917C9.03618 15.0284 9.04413 15.7677 9.16591 15.7996C9.22658 15.8152 9.4051 15.0856 9.45518 15.1232C9.50526 15.1608 9.54742 15.2079 9.57925 15.2619C9.61108 15.3158 9.63195 15.3755 9.64066 15.4375C9.64938 15.4995 9.64576 15.5626 9.63003 15.6232C9.50245 16.1062 9.43847 16.6037 9.43969 17.1031V18.9589C9.75166 18.886 10.071 18.8493 10.3914 18.8495C11.519 18.8494 12.6012 19.2941 13.403 20.087C14.2047 20.8798 14.6615 21.957 14.674 23.0845C14.9887 23.1416 15.311 23.1416 15.6257 23.0845C15.6382 21.957 16.0949 20.8798 16.8967 20.087C17.6985 19.2941 18.7807 18.8494 19.9083 18.8495C20.2287 18.8493 20.548 18.886 20.86 18.9589V17.1031C20.8604 16.6087 20.7981 16.1162 20.6744 15.6375C20.6429 15.5151 20.6612 15.3852 20.7255 15.2763C20.7897 15.1674 21.0784 15.6691 21.2008 15.6375C21.3232 15.606 21.2694 15.0438 21.3782 15.1081C21.4871 15.1723 21.566 15.2772 21.5976 15.3996C21.7404 15.9562 21.8123 16.5285 21.8117 17.1031V19.3253C22.376 19.6053 22.8715 20.0064 23.2631 20.4999C23.6546 20.9934 23.9324 21.5672 24.0767 22.1804C24.3982 21.5746 24.5986 20.9119 24.6668 20.2294C24.9903 17.0555 22.2875 13.6152 18.0573 11.7784ZM12.2948 23.6079V25.5113C12.2948 26.0161 12.0942 26.5003 11.7373 26.8572C11.3803 27.2142 10.8962 27.4147 10.3914 27.4147C9.88658 27.4147 9.40244 27.2142 9.04549 26.8572C8.68854 26.5003 8.488 26.0161 8.488 25.5113V23.6079C8.488 23.1031 8.68854 22.619 9.04549 22.262C9.40244 21.9051 9.88658 21.7046 10.3914 21.7046C10.8962 21.7046 11.3803 21.9051 11.7373 22.262C12.0942 22.619 12.2948 23.1031 12.2948 23.6079ZM11.3431 23.6079C11.3431 23.3555 11.2428 23.1135 11.0643 22.935C10.8859 22.7565 10.6438 24.1691 10.3914 24.1691C10.139 24.1691 9.89691 22.7565 9.71844 22.935C9.53996 23.1135 9.43969 23.3555 9.43969 23.6079V25.5113C9.43969 25.7637 9.53996 26.0058 9.71844 26.1843C9.89691 26.3627 10.139 24.9842 10.3914 24.9842C10.6438 24.9842 10.8859 26.3627 11.0643 26.1843C11.2428 26.0058 11.3431 25.7637 11.3431 25.5113V23.6079ZM21.8117 23.6079V25.5113C21.8117 26.0161 21.6111 26.5003 21.2542 26.8572C20.8972 27.2142 20.4131 27.4147 19.9083 27.4147C19.4035 27.4147 18.9194 27.2142 18.5624 26.8572C18.2055 26.5003 18.0049 26.0161 18.0049 25.5113V23.6079C18.0049 23.1031 18.2055 22.619 18.5624 22.262C18.9194 21.9051 19.4035 21.7046 19.9083 21.7046C20.4131 21.7046 20.8972 21.9051 21.2542 22.262C21.6111 22.619 21.8117 23.1031 21.8117 23.6079ZM20.86 23.6079C20.86 23.3555 20.7597 23.1135 20.5812 22.935C20.4028 22.7565 20.1607 24.0838 19.9083 24.0838C19.6559 24.0838 19.4138 22.7565 19.2354 22.935C19.0569 23.1135 18.9566 23.3555 18.9566 23.6079V25.5113C18.9566 25.7637 19.0569 26.0058 19.2354 26.1843C19.4138 26.3627 19.6559 24.9498 19.9083 24.9498C20.1607 24.9498 20.4028 26.3627 20.5812 26.1843C20.7597 26.0058 20.86 25.7637 20.86 25.5113V23.6079Z" fill="#0C0C0C"/>
<path d="M13.2465 6.95333V6.47749C13.2465 6.35128 13.2966 6.23025 13.3858 6.14101C13.4751 6.05177 13.5961 6.00164 13.7223 6.00164C13.8485 6.00164 13.9695 6.05177 14.0588 6.14101C14.148 6.23025 14.1982 6.35128 14.1982 6.47749V6.95333C14.1982 7.07954 14.148 7.20057 14.0588 7.28981C13.9695 7.37904 13.8355 7.28785 13.7093 7.28785C13.5831 7.28785 13.4751 7.37904 13.3858 7.28981C13.2966 7.20057 13.2465 7.07954 13.2465 6.95333ZM16.5901 7.28785C16.7163 7.28785 16.8246 7.37904 16.9139 7.28981C17.0031 7.20057 17.0532 7.07954 17.0532 6.95333V6.47749C17.0532 6.35128 17.0031 6.23025 16.9139 6.14101C16.8246 6.05177 16.7036 6.00164 16.5774 6.00164C16.4512 6.00164 16.3301 6.05177 16.2409 6.14101C16.1517 6.23025 16.1015 6.35128 16.1015 6.47749V6.95333C16.1015 7.07954 16.1517 7.20057 16.2409 7.28981C16.3301 7.37904 16.4639 7.28785 16.5901 7.28785ZM15.1498 13.6152C14.1402 13.6152 13.172 14.0162 12.4581 14.7302C11.7441 15.4441 11.3431 16.4123 11.3431 17.4219V17.8978C11.3431 18.024 11.3932 18.145 11.4824 18.2343C11.5717 18.3235 11.5254 17.988 11.6516 17.988C11.7778 17.988 12.0662 18.3235 12.1554 18.2343C12.2446 18.145 12.2948 18.024 12.2948 17.8978V17.4219C12.2948 16.6647 12.5956 15.9385 13.131 15.4031C13.6664 14.8677 14.3926 14.5669 15.1498 14.5669C15.276 14.5669 15.3971 14.5167 15.4863 14.4275C15.5756 14.3383 15.6257 14.2172 15.6257 14.091C15.6257 13.9648 15.5756 13.8438 15.4863 13.7545C15.3971 13.6653 15.276 13.6152 15.1498 13.6152ZM16.9295 14.053C16.874 14.0232 16.8131 14.0047 16.7504 13.9986C16.6877 13.9926 16.6244 13.999 16.5642 14.0176C16.504 14.0362 16.448 14.0666 16.3997 14.1069C16.3513 14.1473 16.3028 14.2267 16.2737 14.2826C16.2151 14.3943 16.2118 14.4949 16.2493 14.6154C16.2868 14.7358 16.3705 14.8365 16.4822 14.8952C16.5721 14.943 16.6595 14.9954 16.7439 15.0522C16.8227 15.1052 16.9155 15.1333 17.0104 15.1331C17.0883 15.1332 17.1651 15.1142 17.234 15.0777C17.3029 15.0412 17.3539 15.0214 17.3975 14.9568C17.4326 14.905 17.4649 14.8137 17.4774 14.7523C17.49 14.691 17.4903 14.6278 17.4783 14.5664C17.4664 14.5049 17.4425 14.4465 17.4079 14.3943C17.3733 14.3421 17.3288 14.2973 17.2769 14.2623C17.1627 14.1862 17.0532 14.1196 16.9295 14.053ZM17.8146 15.3663C17.7597 15.397 17.7114 15.4382 17.6725 15.4877C17.6336 15.5372 17.605 15.5939 17.5881 15.6545C17.5713 15.7151 17.5667 15.7785 17.5745 15.8409C17.5824 15.9033 17.6025 15.9636 17.6338 16.0182C17.8776 16.4458 18.0055 16.9297 18.0049 17.4219V17.8978C18.0049 18.024 18.0551 18.145 18.1443 18.2343C18.2335 18.3235 18.5217 17.988 18.6479 17.988C18.7741 17.988 18.728 18.3235 18.8172 18.2343C18.9065 18.145 18.9566 18.024 18.9566 17.8978V17.4219C18.9621 16.7665 18.7982 16.1207 18.4808 15.5471C18.4501 15.4903 18.4082 15.4402 18.3577 15.4001C18.3071 15.3599 18.2488 15.3305 18.1865 15.3136C18.1242 15.2967 18.0591 15.2926 17.9951 15.3017C17.9312 15.3107 17.8698 15.3327 17.8146 15.3663ZM25.6185 20.3246C25.4699 21.5813 24.9757 22.7722 24.1909 23.765V25.5113C24.1865 26.5636 23.7949 27.5775 23.0907 28.3595C22.3864 29.1414 21.419 29.6367 20.3729 29.7509C19.3268 29.865 18.2752 29.59 17.419 28.9783C16.5627 28.3666 15.9616 27.4611 15.7304 26.4345C15.5353 26.4345 15.3449 26.463 15.1498 26.463C14.9547 26.463 14.7644 26.463 14.5693 26.4345C14.3381 27.4611 13.737 28.3666 12.8807 28.9783C12.0245 29.59 10.9729 29.865 9.92682 29.7509C8.88071 29.6367 7.91325 29.1414 7.20903 28.3595C6.50481 27.5775 6.11315 26.5636 6.10877 25.5113V23.765C5.32395 22.7722 4.8298 21.5813 4.68124 20.3246C4.32911 16.7986 7.01764 13.1869 11.4287 11.1027C10.4612 10.1246 9.91756 8.80497 9.91554 7.42918C9.9178 7.216 9.9321 7.00311 9.95837 6.79154C9.39113 6.60564 8.89731 6.24492 8.54769 5.76109C8.19807 5.27727 8.01061 4.69518 8.01216 4.09826C8.01888 3.48762 8.22122 2.89523 8.58946 2.40807C8.9577 1.92092 9.47244 1.56466 10.0581 1.39163C10.6437 1.2186 11.2694 1.2379 11.8433 1.44671C12.4172 1.65552 12.909 2.04283 13.2465 2.55176C14.4609 2.07581 15.8102 2.07581 17.0247 2.55176C17.2696 2.16481 17.604 1.84245 17.9997 1.61189C18.3953 1.38133 18.8407 1.24933 19.2981 1.22702C19.7555 1.20472 20.2115 1.29277 20.6277 1.48374C21.044 1.67471 21.4081 1.963 21.6896 2.32429C21.971 2.68557 22.1613 3.10924 22.2446 3.55955C22.3279 4.00986 22.3016 4.4736 22.168 4.91162C22.0344 5.34965 21.7974 5.74911 21.477 6.0763C21.1566 6.40349 20.7622 6.6488 20.327 6.79154C20.3581 7.00284 20.3772 7.21573 20.3841 7.42918C20.3821 8.80497 19.8385 10.1246 18.871 11.1027C23.282 13.1679 25.9706 16.7986 25.6185 20.3246ZM17.8955 2.98002C18.9593 3.63498 19.7554 4.647 20.1415 5.83509C20.4207 5.72906 20.671 5.5588 20.8723 5.33809C21.0735 5.11738 21.22 4.8524 21.2999 4.56459C21.3797 4.27678 21.3907 3.97422 21.332 3.68137C21.2732 3.38852 21.1464 3.11361 20.9617 2.87885C20.7771 2.6441 20.5397 2.45611 20.269 2.33007C19.9982 2.20403 19.7015 2.14349 19.403 2.15334C19.1045 2.16319 18.8125 2.24315 18.5506 2.38676C18.2887 2.53038 18.0643 2.73361 17.8955 2.98002ZM10.1582 5.83509C10.5443 4.647 11.3404 3.63498 12.4042 2.98002C12.2354 2.73361 12.011 2.53038 11.7491 2.38676C11.4872 2.24315 11.1952 2.16319 10.8967 2.15334C10.5982 2.14349 10.3015 2.20403 10.0307 2.33007C9.75995 2.45611 9.52262 2.6441 9.33795 2.87885C9.15328 3.11361 9.02645 3.38852 8.96771 3.68137C8.90897 3.97422 8.91998 4.27678 8.99983 4.56459C9.07969 4.8524 9.22616 5.11738 9.4274 5.33809C9.62864 5.5588 9.87899 5.72906 10.1582 5.83509ZM10.8672 7.42918C10.8677 8.48225 11.2562 9.49823 11.9585 10.283C12.6607 11.0677 13.6274 11.5662 14.674 11.6832V10.151C14.4926 10.0463 14.3508 9.88458 14.2706 9.69102C14.1904 9.49747 14.1764 9.28287 14.2306 9.08051C14.2848 8.87815 14.4043 8.69934 14.5705 8.5718C14.7367 8.44427 14.9403 8.72982 15.1498 8.72982C15.3593 8.72982 15.563 8.44427 15.7292 8.5718C15.8954 8.69934 16.0149 8.87815 16.0691 9.08051C16.1233 9.28287 16.1093 9.49747 16.0291 9.69102C15.9489 9.88458 15.8071 10.0463 15.6257 10.151V11.6832C16.4474 11.5914 17.2249 11.2636 17.8644 10.7395C18.5039 10.2154 18.978 9.51745 19.2295 8.72982C19.481 7.94218 19.4991 7.09859 19.2817 6.30088C19.0643 5.50317 18.6206 4.78546 18.0042 4.2344C17.3878 3.68334 16.625 3.32248 15.808 3.19541C14.991 3.06834 14.1547 3.18048 13.4001 3.5183C12.6454 3.85611 12.0047 4.40515 11.5552 5.09913C11.1058 5.79312 10.8668 6.60237 10.8672 7.42918ZM13.7223 23.1321C13.7223 22.2487 13.3714 21.4014 12.7467 20.7768C12.122 20.1521 11.3004 20.4572 10.417 20.4572C9.53359 20.4572 8.66074 20.1521 8.03607 20.7768C7.4114 21.4014 7.06046 22.2487 7.06046 23.1321V25.5113C7.06046 26.3947 7.4114 27.242 8.03607 27.8666C8.66074 28.4913 9.53359 28.2765 10.417 28.2765C11.3004 28.2765 12.122 28.4913 12.7467 27.8666C13.3714 27.242 13.7223 26.3947 13.7223 25.5113V23.1321ZM15.6257 25.5113V24.0838C15.31 24.1282 14.9897 24.1282 14.674 24.0838V25.5113C14.9908 25.5351 15.3089 25.5351 15.6257 25.5113ZM23.2392 23.1321C23.2392 22.2487 22.8883 21.4014 22.2636 20.7768C21.639 20.1521 20.7917 20.4572 19.9083 20.4572C19.0249 20.4572 18.1777 20.1521 17.553 20.7768C16.9283 21.4014 16.5774 22.2487 16.5774 23.1321V25.5113C16.5774 26.3947 16.9283 27.242 17.553 27.8666C18.1777 28.4913 19.0249 28.2765 19.9083 28.2765C20.7917 28.2765 21.639 28.4913 22.2636 27.8666C22.8883 27.242 23.2392 26.3947 23.2392 25.5113V23.1321ZM18.0573 11.7784C17.1966 12.3533 16.1848 12.6601 15.1498 12.6601C14.1148 12.6601 13.1031 12.3533 12.2424 11.7784C8.01216 13.6152 5.30935 17.0555 5.63293 20.2294C5.70108 20.9119 5.90149 21.5746 6.22298 22.1804C6.3673 21.5672 6.64512 20.9934 7.03664 20.4999C7.42815 20.0064 7.92371 19.6053 8.488 19.3253V17.1031C8.48924 16.5221 8.56276 15.9434 8.70689 15.3806C8.73928 15.2589 8.81856 15.155 8.92737 15.0917C9.03618 15.0284 9.04413 15.7677 9.16591 15.7996C9.22658 15.8152 9.4051 15.0856 9.45518 15.1232C9.50526 15.1608 9.54742 15.2079 9.57925 15.2619C9.61108 15.3158 9.63195 15.3755 9.64066 15.4375C9.64938 15.4995 9.64576 15.5626 9.63003 15.6232C9.50245 16.1062 9.43847 16.6037 9.43969 17.1031V18.9589C9.75166 18.886 10.071 18.8493 10.3914 18.8495C11.519 18.8494 12.6012 19.2941 13.403 20.087C14.2047 20.8798 14.6615 21.957 14.674 23.0845C14.9887 23.1416 15.311 23.1416 15.6257 23.0845C15.6382 21.957 16.0949 20.8798 16.8967 20.087C17.6985 19.2941 18.7807 18.8494 19.9083 18.8495C20.2287 18.8493 20.548 18.886 20.86 18.9589V17.1031C20.8604 16.6087 20.7981 16.1162 20.6744 15.6375C20.6429 15.5151 20.6612 15.3852 20.7255 15.2763C20.7897 15.1674 21.0784 15.6691 21.2008 15.6375C21.3232 15.606 21.2694 15.0438 21.3782 15.1081C21.4871 15.1723 21.566 15.2772 21.5976 15.3996C21.7404 15.9562 21.8123 16.5285 21.8117 17.1031V19.3253C22.376 19.6053 22.8715 20.0064 23.2631 20.4999C23.6546 20.9934 23.9324 21.5672 24.0767 22.1804C24.3982 21.5746 24.5986 20.9119 24.6668 20.2294C24.9903 17.0555 22.2875 13.6152 18.0573 11.7784ZM12.2948 23.6079V25.5113C12.2948 26.0161 12.0942 26.5003 11.7373 26.8572C11.3803 27.2142 10.8962 27.4147 10.3914 27.4147C9.88658 27.4147 9.40244 27.2142 9.04549 26.8572C8.68854 26.5003 8.488 26.0161 8.488 25.5113V23.6079C8.488 23.1031 8.68854 22.619 9.04549 22.262C9.40244 21.9051 9.88658 21.7046 10.3914 21.7046C10.8962 21.7046 11.3803 21.9051 11.7373 22.262C12.0942 22.619 12.2948 23.1031 12.2948 23.6079ZM11.3431 23.6079C11.3431 23.3555 11.2428 23.1135 11.0643 22.935C10.8859 22.7565 10.6438 24.1691 10.3914 24.1691C10.139 24.1691 9.89691 22.7565 9.71844 22.935C9.53996 23.1135 9.43969 23.3555 9.43969 23.6079V25.5113C9.43969 25.7637 9.53996 26.0058 9.71844 26.1843C9.89691 26.3627 10.139 24.9842 10.3914 24.9842C10.6438 24.9842 10.8859 26.3627 11.0643 26.1843C11.2428 26.0058 11.3431 25.7637 11.3431 25.5113V23.6079ZM21.8117 23.6079V25.5113C21.8117 26.0161 21.6111 26.5003 21.2542 26.8572C20.8972 27.2142 20.4131 27.4147 19.9083 27.4147C19.4035 27.4147 18.9194 27.2142 18.5624 26.8572C18.2055 26.5003 18.0049 26.0161 18.0049 25.5113V23.6079C18.0049 23.1031 18.2055 22.619 18.5624 22.262C18.9194 21.9051 19.4035 21.7046 19.9083 21.7046C20.4131 21.7046 20.8972 21.9051 21.2542 22.262C21.6111 22.619 21.8117 23.1031 21.8117 23.6079ZM20.86 23.6079C20.86 23.3555 20.7597 23.1135 20.5812 22.935C20.4028 22.7565 20.1607 24.0838 19.9083 24.0838C19.6559 24.0838 19.4138 22.7565 19.2354 22.935C19.0569 23.1135 18.9566 23.3555 18.9566 23.6079V25.5113C18.9566 25.7637 19.0569 26.0058 19.2354 26.1843C19.4138 26.3627 19.6559 24.9498 19.9083 24.9498C20.1607 24.9498 20.4028 26.3627 20.5812 26.1843C20.7597 26.0058 20.86 25.7637 20.86 25.5113V23.6079Z" stroke="black" stroke-width="0.6" mask="url(#path-1-outside-1_247_6940)"/>
<path d="M11.8901 3.26075C12.0156 3.32564 12.1298 3.40657 12.2296 3.5006C11.4066 4.04392 10.771 4.80737 10.4065 5.69531C10.2732 5.62266 10.1525 5.53121 10.0489 5.42415C9.89121 5.26111 9.77747 5.06653 9.71567 4.85662C9.65389 4.64679 9.64542 4.42653 9.69081 4.21327C9.73621 3.99995 9.83448 3.7985 9.9789 3.62549C10.1234 3.45242 10.3101 3.3126 10.5247 3.21845C10.7394 3.12429 10.9752 3.0788 11.213 3.08619C11.4508 3.09359 11.6828 3.15362 11.8901 3.26075Z" stroke="#0C0C0C" stroke-width="0.488216"/>
<path d="M20.3429 5.40648C20.2364 5.52206 20.1112 5.62123 19.9717 5.70034C19.5713 4.78265 18.8877 4.00199 18.0123 3.45859C18.1153 3.35468 18.2346 3.26484 18.3669 3.19244C18.5782 3.07679 18.8166 3.00905 19.0629 2.99569C19.3093 2.98233 19.5557 3.02381 19.782 3.1168C20.0084 3.20979 20.2074 3.35132 20.3634 3.52911C20.5195 3.70687 20.6279 3.91559 20.6813 4.13788C20.7346 4.36009 20.7315 4.59023 20.673 4.81C20.6144 5.02978 20.5016 5.23414 20.3429 5.40648L20.5206 5.56624L20.3429 5.40648Z" stroke="#0C0C0C" stroke-width="0.483227"/>
<path fill-rule="evenodd" clip-rule="evenodd" d="M32.1562 29.2412C32.1562 29.747 32.3862 29.9999 32.846 29.9999H34.1151C34.575 29.9999 34.8049 29.747 34.8049 29.2412V14.7704C34.8049 14.4025 34.7957 14.0346 34.7773 13.6668H34.8325L39.9228 29.1584C40.1067 29.7194 40.4102 29.9999 40.8332 29.9999H42.3507C42.7737 29.9999 43.0772 29.7194 43.2611 29.1584L48.3514 13.6668H48.4066C48.3882 14.0346 48.379 14.4025 48.379 14.7704V29.2412C48.379 29.747 48.6089 29.9999 49.0688 29.9999H50.3379C50.7977 29.9999 51.0276 29.747 51.0276 29.2412V10.9768C51.0276 10.471 50.7977 10.218 50.3379 10.218H47.3996C47.0501 10.218 46.788 10.4939 46.6133 11.0457L42.6679 23.4197C42.2633 24.6889 42.0242 25.4568 41.9506 25.7235C41.877 25.981 41.7713 26.4592 41.6333 27.1581H41.5506C41.4126 26.4592 41.3068 25.981 41.2333 25.7235C41.1597 25.4568 40.9206 24.6889 40.5159 23.4197L36.5706 11.0457C36.3959 10.4939 36.1338 10.218 35.7843 10.218H32.846C32.3862 10.218 32.1562 10.471 32.1562 10.9768V29.2412ZM55.7179 29.2412C55.7179 29.747 55.9478 29.9999 56.4076 29.9999H57.6768C58.1366 29.9999 58.3665 29.747 58.3665 29.2412V23.5025L61.6635 20.1504L67.9677 29.4619C68.2068 29.8206 68.5287 29.9999 68.9334 29.9999H70.6163C71.1865 29.9999 71.2693 29.6964 70.8647 29.0894L63.4844 18.2743L70.4922 11.1285C71.09 10.5215 71.0072 10.218 70.2439 10.218H68.5747C68.2804 10.218 67.9585 10.3974 67.6091 10.756L58.3941 20.1917H58.3389C58.3573 19.8239 58.3665 19.456 58.3665 19.0881V10.9768C58.3665 10.471 58.1366 10.218 57.6768 10.218H56.4076C55.9478 10.218 55.7179 10.471 55.7179 10.9768V29.2412ZM73.3063 26.9236C73.0856 27.1903 73.1592 27.5352 73.5271 27.9582C74.0053 28.5008 74.6996 29.048 75.6101 29.5998C76.5206 30.1424 77.6747 30.4137 79.0726 30.4137C81.4821 30.4137 83.2387 29.8665 84.3422 28.7721C85.455 27.6686 86.0114 26.1603 86.0114 24.2474C86.0114 22.9599 85.5608 21.8517 84.6595 20.9229C83.7583 19.994 82.8156 19.4606 81.8316 19.3227V19.2675C82.6777 19.0835 83.4548 18.6053 84.1629 17.8328C84.8802 17.0511 85.2389 16.0809 85.2389 14.9221C85.2389 13.4598 84.7377 12.2689 83.7353 11.3492C82.7328 10.4296 81.2798 9.96974 79.3761 9.96974C78.1346 9.96974 77.0632 10.1951 76.1619 10.6457C75.2698 11.0963 74.5847 11.6021 74.1064 12.1631C73.6558 12.6965 73.5501 13.0782 73.7892 13.3081L74.6031 14.0944C74.9249 14.3979 75.256 14.3289 75.5963 13.8875C75.8538 13.5564 76.2952 13.1655 76.9206 12.7149C77.546 12.2643 78.3507 12.039 79.3347 12.039C80.3831 12.039 81.197 12.2919 81.7764 12.7977C82.3558 13.3035 82.6455 13.9519 82.6455 14.7428C82.6455 15.8831 82.2822 16.7844 81.5557 17.4466C80.8383 18.1087 79.9739 18.4398 78.9622 18.4398H77.9828C77.569 18.4398 77.362 18.6007 77.362 18.9226V19.9434C77.362 20.2469 77.569 20.3987 77.9828 20.3987H79.1968C80.2452 20.3987 81.1924 20.6975 82.0385 21.2953C82.8846 21.8931 83.3076 22.8587 83.3076 24.1922C83.3076 25.4522 82.9903 26.4592 82.3558 27.2133C81.7212 27.9674 80.6452 28.3445 79.1278 28.3445C78.3553 28.3445 77.6149 28.156 76.9068 27.7789C76.2079 27.3927 75.6193 26.9006 75.1411 26.3029C74.7088 25.7603 74.3364 25.6775 74.0237 26.0546L73.3063 26.9236ZM89.3498 29.2412C89.3498 29.747 89.5797 29.9999 90.0395 29.9999H95.1298C99.0292 29.9999 101.738 29.1308 103.255 27.3927C104.782 25.6453 105.545 23.2082 105.545 20.0814C105.545 16.9545 104.782 14.5312 103.255 12.8115C101.738 11.0825 99.0292 10.218 95.1298 10.218H90.0395C89.5797 10.218 89.3498 10.471 89.3498 10.9768V29.2412ZM95.0057 27.7375H91.9984V19.211C91.9284 19.2221 91.8566 19.2278 91.7835 19.2278C91.0285 19.2278 90.4165 18.6158 90.4165 17.8608C90.4165 17.1058 91.0285 16.4937 91.7835 16.4937C91.8566 16.4937 91.9284 16.4995 91.9984 16.5105V12.4528H95.0057C98.0406 12.4528 100.082 13.092 101.131 14.3703C102.188 15.6486 102.717 17.5523 102.717 20.0814C102.717 22.6104 102.188 24.5187 101.131 25.8062C100.082 27.0938 98.0406 27.7375 95.0057 27.7375ZM109.159 29.2412C109.159 29.747 109.389 29.9999 109.849 29.9999H111.118C111.578 29.9999 111.808 29.747 111.808 29.2412V10.9768C111.808 10.471 111.578 10.218 111.118 10.218H109.849C109.389 10.218 109.159 10.471 109.159 10.9768V29.2412ZM114.65 11.97C114.65 12.3838 114.902 12.5908 115.408 12.5908H121.381V29.2412C121.381 29.747 121.611 29.9999 122.071 29.9999H123.34C123.8 29.9999 124.03 29.747 124.03 29.2412V12.5908H130.003C130.509 12.5908 130.762 12.3838 130.762 11.97V10.8388C130.762 10.425 130.509 10.218 130.003 10.218H115.408C114.902 10.218 114.65 10.425 114.65 10.8388V11.97ZM133.162 27.3513C132.932 27.6824 133.061 28.0686 133.549 28.51C134.091 29.0067 134.91 29.4481 136.004 29.8344C137.098 30.2206 138.478 30.4137 140.142 30.4137C141.531 30.4137 142.685 30.2436 143.605 29.9033C144.525 29.5631 145.32 28.9561 145.992 28.0824C146.663 27.2087 146.999 26.1189 146.999 24.813C146.999 24.0957 146.893 23.4519 146.681 22.8817C146.479 22.3024 146.189 21.769 145.812 21.2815C145.444 20.7849 144.837 20.3113 143.991 19.8607C143.081 19.3732 142.014 18.964 140.791 18.6329C139.577 18.2926 138.68 17.9984 138.101 17.75C137.669 17.5661 137.301 17.304 136.997 16.9637C136.694 16.6235 136.505 16.2924 136.432 15.9705C136.358 15.6394 136.321 15.2808 136.321 14.8945C136.321 14.2783 136.482 13.7357 136.804 13.2667C137.126 12.7977 137.567 12.4666 138.128 12.2735C138.689 12.0712 139.393 11.97 140.239 11.97C140.901 11.97 141.568 12.1171 142.239 12.4114C142.92 12.6965 143.495 13.0046 143.964 13.3357C144.58 13.7679 144.994 13.8323 145.205 13.5288L145.909 12.5218C146.166 12.1447 146.056 11.7861 145.578 11.4458C144.897 10.9584 144.125 10.5629 143.26 10.2594C142.396 9.95594 141.379 9.8042 140.211 9.8042C139.191 9.8042 138.184 9.94215 137.19 10.218C136.206 10.4939 135.374 11.0549 134.694 11.901C134.013 12.7471 133.673 13.7541 133.673 14.9221C133.673 15.6854 133.751 16.366 133.907 16.9637C134.073 17.5523 134.399 18.1271 134.887 18.6881C135.383 19.2491 136.045 19.7273 136.873 20.1228C137.71 20.5182 138.685 20.8861 139.798 21.2264C140.92 21.5666 141.761 21.8655 142.322 22.123C142.662 22.2794 142.989 22.4955 143.302 22.7714C143.614 23.0473 143.84 23.3921 143.977 23.806C144.125 24.2106 144.198 24.6521 144.198 25.1303C144.198 25.7925 144.023 26.358 143.674 26.8271C143.334 27.2869 142.878 27.641 142.308 27.8893C141.738 28.1376 141.039 28.2617 140.211 28.2617C139.089 28.2617 138.133 28.087 137.342 27.7375C136.56 27.3881 135.806 26.942 135.08 26.3994C134.528 25.9856 134.128 25.958 133.88 26.3167L133.162 27.3513Z" fill="#0C0C0C"/>
<path d="M94.0755 24.9133C94.0755 24.7338 94.221 24.5882 94.4005 24.5882L94.6627 24.5882C94.8422 24.5882 94.9877 24.4427 94.9877 24.2632L94.9877 22.1441C94.9877 21.9645 94.8422 21.819 94.6627 21.819L94.4005 21.819C94.221 21.819 94.0755 21.6735 94.0755 21.4939L94.0755 21.2659C94.0755 21.2127 94.0885 21.1602 94.1136 21.1132L95.6214 18.2799C95.6728 18.1834 95.6722 18.0675 95.6198 17.9715L92.1739 11.6519C92.0348 11.3968 91.6563 11.4385 91.5761 11.7178L89.747 18.0841C89.7386 18.1132 89.7344 18.1435 89.7344 18.1738L89.7344 21.0685L89.7344 21.9454L89.7344 22.413L89.7344 24.3524C89.7344 24.4827 89.8399 24.5882 89.9702 24.5882L91.0283 27.2039C91.078 27.3267 91.1972 27.4071 91.3297 27.4071L93.7504 27.4071C93.9299 27.4071 94.0755 27.2615 94.0755 27.082L94.0755 24.9133ZM91.7947 17.1747C92.172 17.1747 92.479 17.4854 92.479 17.867C92.479 18.2487 92.172 18.5594 91.7947 18.5594C91.4175 18.5594 91.1105 18.2487 91.1105 17.867C91.1105 17.4854 91.4175 17.1747 91.7947 17.1747ZM89.9184 18.4073C89.9178 18.3762 89.9217 18.3452 89.9299 18.3152L90.928 14.6655C91.0281 14.2998 91.5667 14.3721 91.5667 14.7513L91.5667 16.4723C91.5667 16.6263 91.4558 16.7548 91.3163 16.8202C91.1605 16.8932 91.0219 17.0014 90.9119 17.1377C90.7457 17.3436 90.6547 17.6012 90.6544 17.867C90.6544 18.5033 91.166 19.0209 91.7947 19.0209C92.4235 19.0209 92.9351 18.5033 92.9351 17.867C92.9348 17.6012 92.8438 17.3436 92.6776 17.1377C92.5676 17.0014 92.429 16.8932 92.2732 16.8202C92.1337 16.7548 92.0228 16.6263 92.0228 16.4723L92.0228 13.6056C92.0228 13.2688 92.472 13.1543 92.6333 13.45L95.1003 17.9743C95.1526 18.0703 95.1532 18.1861 95.1019 18.2826L93.6574 20.9969C93.6324 21.0439 93.6193 21.0964 93.6193 21.1496L93.6193 21.4939C93.6193 21.6735 93.4738 21.819 93.2942 21.819L90.2952 21.819C90.1157 21.819 89.9702 21.6735 89.9702 21.4939L89.9702 21.0685L89.9184 18.4073ZM92.7068 24.5882L90.3317 24.5882L89.9702 24.5882L93.6193 24.5882L92.7068 24.5882Z" fill="#0C0C0C"/>
</svg>
