<svg width="97" height="125" viewBox="0 0 97 125" fill="none" xmlns="http://www.w3.org/2000/svg">
<g filter="url(#filter0_d_245_3861)">
<path d="M64.5679 -35.1967V-2.62342L52.7817 -11.1208C46.2993 -15.6527 40.2098 -19.6182 39.0311 -19.6182C34.5131 -19.6182 37.6561 -10.8375 46.1029 -0.0742053C52.1924 7.57343 54.3532 11.8221 52.5853 12.6719C51.0138 13.5216 39.424 18.0535 26.4592 22.5855C2.29751 31.0828 -2.61341 34.765 1.11889 40.1467C2.49394 42.1294 11.9229 41.2797 32.9416 36.7478C49.4423 33.3488 63.3893 31.3661 63.9786 32.2158C64.5679 33.3488 61.2285 43.2624 56.7104 54.5922C51.996 65.9221 48.0672 76.1189 47.6744 76.9687C47.2815 78.1017 48.2637 80.3676 49.6387 82.0671C51.996 84.8996 53.9603 83.4833 60.2463 75.5524C64.5679 69.8875 68.8895 65.3556 69.8717 65.3556C70.8539 65.3556 72.8182 73.853 74.3897 84.3331C77.7292 108.692 80.0864 116.34 84.408 116.34C89.7118 116.34 90.694 107.559 89.1225 74.9859C88.3367 58.5577 88.3367 45.5284 89.3189 45.5284C90.3011 45.5284 98.1586 50.0603 106.802 55.442C123.892 66.2053 129.392 67.6216 129.392 61.3901C129.392 55.7252 126.249 51.7598 111.123 36.7478C103.855 29.9499 97.9621 23.4352 97.9621 22.5855C97.9621 21.7357 107.98 16.9205 120.159 11.8221C141.964 2.75825 151 -3.18991 151 -8.28834C151 -12.537 138.624 -11.6873 118.981 -6.58886C109.552 -4.03965 101.105 -2.62342 100.516 -3.7564C99.9265 -4.60614 101.302 -11.9705 103.659 -19.9014C112.498 -50.7752 106.998 -53.6077 93.2476 -24.9998C88.1403 -13.9533 83.0329 -6.02237 82.2472 -7.4386C81.4615 -8.57158 79.3006 -19.9014 77.3363 -32.3642C73.4076 -58.9893 70.8539 -67.77 67.1216 -67.77C65.1572 -67.77 64.5679 -60.4056 64.5679 -35.1967Z" fill="#DE611A"/>
<path d="M65.5679 -2.62342V-0.669662L63.9831 -1.81226L52.2087 -10.3012C52.2067 -10.3026 52.2047 -10.304 52.2027 -10.3054C48.9692 -12.5659 45.8439 -14.678 43.3856 -16.2222C42.1538 -16.9959 41.1038 -17.618 40.2983 -18.0435C39.8943 -18.2569 39.5685 -18.4119 39.3218 -18.511C39.0996 -18.6002 39.0097 -18.6155 39.01 -18.6179C39.01 -18.618 39.0102 -18.618 39.0104 -18.6181C38.6198 -18.6148 38.4185 -18.52 38.312 -18.4357C38.2067 -18.3524 38.0892 -18.1968 38.0208 -17.872C37.8716 -17.1637 38.0224 -15.9506 38.6459 -14.2217C39.8711 -10.8243 42.6959 -6.03565 46.8876 -0.694099C49.9389 3.13812 52.0538 6.17641 53.182 8.39471C53.7392 9.49046 54.1071 10.4828 54.1716 11.3204C54.2047 11.7499 54.1632 12.1995 53.9718 12.6135C53.7749 13.0394 53.4501 13.3596 53.0415 13.5619C52.153 14.0358 48.7995 15.4018 44.1524 17.1817C39.4295 18.9906 33.2824 21.2597 26.791 23.5288C14.6827 27.7872 7.55187 30.7908 3.90349 33.3528C2.07994 34.6334 1.29998 35.6871 1.07534 36.5731C0.863116 37.4101 1.08792 38.3473 1.94061 39.5768C1.95075 39.5914 2.03715 39.6975 2.36289 39.8168C2.68179 39.9336 3.15096 40.0337 3.80646 40.0935C5.11666 40.2132 7.00616 40.1587 9.56143 39.8955C14.6612 39.3702 22.2293 38.0345 32.7308 35.7702L32.7399 35.7683C41.0047 34.0659 48.6366 32.7167 54.2835 31.8989C57.1041 31.4904 59.4454 31.2121 61.1285 31.0901C61.9657 31.0294 62.6684 31.0051 63.1961 31.0281C63.456 31.0394 63.7118 31.0636 63.9347 31.114C64.0461 31.1392 64.1805 31.1777 64.315 31.2418C64.4396 31.3012 64.6434 31.4197 64.8003 31.6459L64.8365 31.6981L64.8658 31.7544C65.0018 32.016 65.0332 32.2924 65.0425 32.4799C65.0529 32.6892 65.04 32.9161 65.0149 33.1462C64.9647 33.6076 64.8543 34.1779 64.6998 34.8281C64.3895 36.1339 63.8762 37.8639 63.2098 39.8923C61.8753 43.9548 59.9029 49.2862 57.6393 54.9627L57.6366 54.9696L57.6337 54.9764C55.2793 60.6345 53.1206 66.0108 51.5009 70.0803C50.9807 71.3874 50.5134 72.5663 50.1123 73.5786C49.323 75.5702 48.7894 76.9167 48.6108 77.3242C48.588 77.4114 48.571 77.582 48.6116 77.8594C48.6556 78.1598 48.7583 78.5247 48.922 78.934C49.2492 79.7517 49.7834 80.6549 50.4118 81.4327C50.9481 82.076 51.3359 82.3168 51.6315 82.385C51.8907 82.4448 52.2772 82.4157 52.9357 82.0002C53.6068 81.5769 54.4434 80.824 55.5318 79.6383C56.6101 78.4635 57.8915 76.9134 59.4568 74.9386C61.6329 72.0866 63.8144 69.5122 65.5852 67.6421C66.4692 66.7085 67.2658 65.9346 67.9177 65.3867C68.2418 65.1142 68.5509 64.88 68.8314 64.7084C69.0621 64.5673 69.4466 64.3556 69.8717 64.3556C70.3007 64.3556 70.6012 64.5828 70.753 64.726C70.9167 64.8803 71.0439 65.0641 71.1422 65.229C71.3418 65.5636 71.5307 66.0067 71.7115 66.5074C72.0778 67.5216 72.4749 68.9548 72.883 70.6847C73.7016 74.1544 74.5904 78.9276 75.3787 84.1848L75.3788 84.1848L75.3805 84.1972C77.0512 96.3844 78.4665 104.307 79.9851 109.173C80.7462 111.612 81.5055 113.187 82.269 114.138C82.9985 115.047 83.6874 115.34 84.408 115.34C84.9283 115.34 85.3464 115.234 85.7016 115.031C86.0587 114.827 86.4126 114.49 86.7497 113.938C87.4449 112.799 87.9976 110.865 88.3499 107.765C89.0512 101.592 88.9101 91.3357 88.1236 75.0341L88.1236 75.0337C87.7303 66.81 87.5331 59.4267 87.5577 54.0919C87.57 51.4287 87.6377 49.2548 87.767 47.7361C87.831 46.9841 87.9133 46.3512 88.0234 45.8887C88.0765 45.6659 88.1505 45.4177 88.2665 45.2031C88.3422 45.0632 88.6537 44.5284 89.3189 44.5284C89.5338 44.5284 89.7384 44.5829 89.8728 44.6237C90.0286 44.6711 90.2001 44.7354 90.3791 44.8092C90.7384 44.9575 91.1851 45.1683 91.6996 45.4276C92.7317 45.9478 94.0931 46.6921 95.6827 47.5983C98.865 49.4124 103.002 51.898 107.33 54.5931L107.335 54.5958C115.906 59.994 121.423 62.9471 124.759 63.8218C126.447 64.2642 127.273 64.0916 127.673 63.7975C128.056 63.516 128.392 62.8644 128.392 61.3901C128.392 58.8272 127.712 56.6248 125.129 53.1733C122.506 49.6691 117.999 44.9807 110.429 37.4678C106.783 34.0574 103.48 30.7158 101.082 28.1137C99.8831 26.813 98.9014 25.6868 98.2142 24.8238C97.8723 24.3944 97.5901 24.0136 97.3884 23.6999C97.2883 23.5442 97.1955 23.3858 97.1243 23.2336C97.0688 23.1149 96.9621 22.871 96.9621 22.5855C96.9621 22.3215 97.0555 22.1175 97.1207 22.0022C97.1902 21.8793 97.2723 21.7792 97.3409 21.7044C97.4778 21.5552 97.6472 21.4148 97.817 21.2877C98.1628 21.0287 98.6424 20.7276 99.2187 20.3956C100.379 19.7272 102.037 18.8741 104.058 17.8968C108.106 15.9394 113.673 13.4535 119.773 10.8997L119.776 10.8987C130.667 6.37122 138.306 2.64698 143.209 -0.557259C145.662 -2.15977 147.382 -3.60216 148.481 -4.91241C149.577 -6.21918 150 -7.32688 150 -8.28834C150 -8.54581 149.918 -8.7435 149.726 -8.93401C149.508 -9.14986 149.118 -9.38136 148.473 -9.57399C147.176 -9.96149 145.155 -10.1028 142.414 -9.94541C136.964 -9.63244 129.035 -8.1651 119.237 -5.62222C114.502 -4.34218 109.998 -3.3422 106.589 -2.80404C104.89 -2.53577 103.43 -2.37679 102.337 -2.36259C101.796 -2.35557 101.296 -2.38288 100.885 -2.46994C100.679 -2.51353 100.455 -2.58009 100.248 -2.69021C100.055 -2.79273 99.8202 -2.96288 99.6589 -3.24C99.537 -3.43549 99.4804 -3.63867 99.4498 -3.78337C99.4132 -3.95624 99.3947 -4.14024 99.3861 -4.32126C99.3688 -4.68371 99.3874 -5.1225 99.4307 -5.61066C99.5178 -6.5921 99.7149 -7.87709 100 -9.36221C100.572 -12.3369 101.513 -16.1912 102.699 -20.1817C104.902 -27.877 106.199 -33.7841 106.702 -37.8682C106.955 -39.9175 107.001 -41.4565 106.881 -42.5129C106.821 -43.0418 106.725 -43.4015 106.624 -43.6287C106.559 -43.7742 106.506 -43.8344 106.484 -43.8552C106.463 -43.8546 106.423 -43.8493 106.358 -43.8278C106.186 -43.7719 105.918 -43.6283 105.55 -43.3261C104.815 -42.7228 103.873 -41.6491 102.736 -40.0372C100.472 -36.83 97.5793 -31.703 94.1521 -24.5732C91.5871 -19.026 89.0145 -14.2436 86.9722 -11.0115C85.957 -9.40488 85.0452 -8.13673 84.3104 -7.34936C83.9603 -6.9743 83.5652 -6.61324 83.1521 -6.42419C82.9396 -6.3269 82.6133 -6.22449 82.2405 -6.30201C81.8429 -6.38469 81.5646 -6.63405 81.3988 -6.90849C81.2125 -7.19561 81.0627 -7.62176 80.9366 -8.02583C80.7893 -8.49766 80.627 -9.10517 80.4528 -9.82274C80.1039 -11.2603 79.6954 -13.1891 79.2522 -15.4613C78.3653 -20.0085 77.3319 -25.9692 76.3484 -32.2085L76.347 -32.2183C74.3821 -45.5345 72.7695 -54.3237 71.1946 -59.7739C70.4046 -62.5075 69.6466 -64.3183 68.9075 -65.4275C68.2257 -66.4509 67.6648 -66.7326 67.2181 -66.7664C67.1323 -66.6581 66.9972 -66.4139 66.8502 -65.933C66.5527 -64.9599 66.3007 -63.3442 66.105 -60.8582C65.7157 -55.9112 65.5679 -47.8064 65.5679 -35.1967V-2.62342ZM106.501 -43.8539C106.502 -43.8541 106.499 -43.8549 106.494 -43.8552C106.498 -43.8538 106.501 -43.8536 106.501 -43.8539Z" stroke="black" stroke-width="2"/>
</g>
<defs>
<filter id="filter0_d_245_3861" x="0" y="-67.77" width="151" height="191.874" filterUnits="userSpaceOnUse" color-interpolation-filters="sRGB">
<feFlood flood-opacity="0" result="BackgroundImageFix"/>
<feColorMatrix in="SourceAlpha" type="matrix" values="0 0 0 0 0 0 0 0 0 0 0 0 0 0 0 0 0 0 127 0" result="hardAlpha"/>
<feOffset dy="7.76457"/>
<feComposite in2="hardAlpha" operator="out"/>
<feColorMatrix type="matrix" values="0 0 0 0 0.745098 0 0 0 0 0.74902 0 0 0 0 0.705882 0 0 0 1 0"/>
<feBlend mode="normal" in2="BackgroundImageFix" result="effect1_dropShadow_245_3861"/>
<feBlend mode="normal" in="SourceGraphic" in2="effect1_dropShadow_245_3861" result="shape"/>
</filter>
</defs>
</svg>
