<svg xmlns="http://www.w3.org/2000/svg" width="93" height="193" viewBox="0 0 93 193" fill="none">
  <g filter="url(#filter0_d_245_3862)">
    <path d="M6.5679 33.4122V65.9855L-5.21829 57.4881C-11.7007 52.9562 -17.7902 48.9907 -18.9689 48.9907C-23.4869 48.9907 -20.3439 57.7713 -11.8971 68.5347C-5.8076 76.1823 -3.6468 80.431 -5.41473 81.2807C-6.98622 82.1305 -18.576 86.6624 -31.5408 91.1944C-55.7025 99.6917 -60.6134 103.374 -56.8811 108.756C-55.5061 110.738 -46.0771 109.889 -25.0584 105.357C-8.55771 101.958 5.38928 99.975 5.97859 100.825C6.5679 101.958 3.22848 111.871 -1.28956 123.201C-6.00404 134.531 -9.93277 144.728 -10.3256 145.578C-10.7185 146.711 -9.73633 148.977 -8.36128 150.676C-6.00404 153.508 -4.03967 152.092 2.2463 144.161C6.5679 138.496 10.8895 133.964 11.8717 133.964C12.8539 133.964 14.8182 142.462 16.3897 152.942C19.7292 177.301 22.0864 184.949 26.408 184.949C31.7118 184.949 32.694 176.168 31.1225 143.595C30.3367 127.167 30.3367 114.137 31.3189 114.137C32.3011 114.137 40.1586 118.669 48.8018 124.051C65.8918 134.814 71.392 136.23 71.392 129.999C71.392 124.334 68.249 120.369 53.1234 105.357C45.8552 98.5587 39.9621 92.0441 39.9621 91.1944C39.9621 90.3446 49.9804 85.5294 62.1595 80.431C83.9639 71.3671 93 65.419 93 60.3206C93 56.0719 80.6245 56.9216 60.9808 62.02C51.5519 64.5692 43.1051 65.9855 42.5158 64.8525C41.9265 64.0027 43.3015 56.6384 45.6588 48.7075C54.4984 17.8337 48.9982 15.0012 35.2476 43.609C30.1403 54.6556 25.0329 62.5865 24.2472 61.1703C23.4615 60.0373 21.3006 48.7075 19.3363 36.2447C15.4076 9.61954 12.8539 0.83892 9.12158 0.83892C7.15721 0.83892 6.5679 8.20331 6.5679 33.4122Z" fill="#DE611A"/>
    <path d="M7.5679 65.9855V67.9392L5.98309 66.7966L-5.79126 58.3077C-5.79327 58.3063 -5.79529 58.3048 -5.7973 58.3034C-9.0308 56.043 -12.1561 53.9309 -14.6144 52.3867C-15.8462 51.613 -16.8962 50.9908 -17.7017 50.5654C-18.1057 50.352 -18.4315 50.197 -18.6782 50.0979C-18.9004 50.0087 -18.9903 49.9934 -18.99 49.991C-18.99 49.9909 -18.9898 49.9909 -18.9896 49.9908C-19.3802 49.994 -19.5815 50.0889 -19.688 50.1732C-19.7933 50.2565 -19.9108 50.4121 -19.9792 50.7369C-20.1284 51.4452 -19.9776 52.6583 -19.3541 54.3872C-18.1289 57.7846 -15.3041 62.5732 -11.1124 67.9148C-8.06114 71.747 -5.94623 74.7853 -4.81804 77.0036C-4.26076 78.0993 -3.89292 79.0916 -3.82837 79.9293C-3.79528 80.3588 -3.83681 80.8084 -4.02823 81.2224C-4.22513 81.6483 -4.54987 81.9685 -4.95853 82.1708C-5.84698 82.6447 -9.20048 84.0107 -13.8476 85.7906C-18.5705 87.5995 -24.7176 89.8686 -31.209 92.1377C-43.3173 96.3961 -50.4481 99.3997 -54.0965 101.962C-55.9201 103.242 -56.7 104.296 -56.9247 105.182C-57.1369 106.019 -56.9121 106.956 -56.0594 108.186C-56.0493 108.2 -55.9629 108.306 -55.6371 108.426C-55.3182 108.542 -54.849 108.643 -54.1935 108.702C-52.8833 108.822 -50.9938 108.768 -48.4386 108.504C-43.3388 107.979 -35.7707 106.643 -25.2692 104.379L-25.2601 104.377C-16.9953 102.675 -9.3634 101.326 -3.71646 100.508C-0.895916 100.099 1.44542 99.821 3.12855 99.699C3.9657 99.6383 4.66837 99.614 5.19608 99.637C5.45599 99.6483 5.71184 99.6725 5.93473 99.7228C6.04613 99.748 6.18054 99.7866 6.31496 99.8507C6.43958 99.9101 6.64342 100.029 6.80032 100.255L6.83648 100.307L6.86576 100.363C7.00184 100.625 7.03322 100.901 7.0425 101.089C7.05286 101.298 7.03997 101.525 7.01492 101.755C6.96468 102.216 6.85432 102.787 6.69981 103.437C6.3895 104.743 5.87617 106.473 5.20982 108.501C3.87526 112.564 1.90292 117.895 -0.360691 123.572L-0.363445 123.578L-0.366299 123.585C-2.72071 129.243 -4.87937 134.62 -6.49909 138.689C-7.01933 139.996 -7.48655 141.175 -7.88772 142.187C-8.677 144.179 -9.2106 145.526 -9.38921 145.933C-9.41199 146.02 -9.42899 146.191 -9.38837 146.468C-9.34439 146.769 -9.24175 147.134 -9.07799 147.543C-8.75083 148.361 -8.21663 149.264 -7.58823 150.042C-7.05188 150.685 -6.66412 150.926 -6.36855 150.994C-6.10926 151.054 -5.72281 151.025 -5.06431 150.609C-4.39318 150.186 -3.55663 149.433 -2.46825 148.247C-1.38989 147.072 -0.108494 145.522 1.45684 143.547C3.63288 140.696 5.81435 138.121 7.58517 136.251C8.46917 135.317 9.26577 134.544 9.91767 133.996C10.2418 133.723 10.5509 133.489 10.8314 133.317C11.0621 133.176 11.4466 132.964 11.8717 132.964C12.3007 132.964 12.6012 133.192 12.753 133.335C12.9167 133.489 13.0439 133.673 13.1422 133.838C13.3418 134.172 13.5307 134.616 13.7115 135.116C14.0778 136.13 14.4749 137.564 14.883 139.294C15.7016 142.763 16.5904 147.537 17.3787 152.794L17.3788 152.794L17.3805 152.806C19.0512 164.993 20.4665 172.916 21.9851 177.782C22.7462 180.221 23.5055 181.796 24.269 182.747C24.9985 183.656 25.6874 183.949 26.408 183.949C26.9283 183.949 27.3464 183.843 27.7016 183.64C28.0587 183.435 28.4126 183.099 28.7497 182.547C29.4449 181.408 29.9976 179.474 30.3499 176.374C31.0512 170.201 30.9101 159.945 30.1236 143.643L30.1236 143.643C29.7303 135.419 29.5331 128.036 29.5577 122.701C29.57 120.038 29.6377 117.864 29.767 116.345C29.831 115.593 29.9133 114.96 30.0234 114.498C30.0765 114.275 30.1505 114.027 30.2665 113.812C30.3422 113.672 30.6537 113.137 31.3189 113.137C31.5338 113.137 31.7384 113.192 31.8728 113.233C32.0286 113.28 32.2001 113.344 32.3791 113.418C32.7384 113.566 33.1851 113.777 33.6996 114.036C34.7317 114.557 36.0931 115.301 37.6827 116.207C40.865 118.021 45.0019 120.507 49.3303 123.202L49.3347 123.205C57.9059 128.603 63.423 131.556 66.7592 132.431C68.4467 132.873 69.2731 132.701 69.6732 132.406C70.0562 132.125 70.392 131.473 70.392 129.999C70.392 127.436 69.7124 125.234 67.1292 121.782C64.5064 118.278 59.9988 113.59 52.4293 106.077C48.7835 102.666 45.4797 99.3247 43.0818 96.7226C41.8831 95.4218 40.9014 94.2957 40.2142 93.4326C39.8723 93.0032 39.5901 92.6225 39.3884 92.3088C39.2883 92.1531 39.1955 91.9947 39.1243 91.8425C39.0688 91.7238 38.9621 91.4799 38.9621 91.1944C38.9621 90.9304 39.0555 90.7264 39.1207 90.611C39.1902 90.4882 39.2723 90.388 39.3409 90.3133C39.4778 90.1641 39.6472 90.0237 39.817 89.8966C40.1628 89.6376 40.6424 89.3365 41.2187 89.0045C42.3792 88.3361 44.0372 87.483 46.0583 86.5057C50.1061 84.5482 55.6728 82.0624 61.7733 79.5086L61.7756 79.5076C72.6672 74.9801 80.306 71.2559 85.2094 68.0516C87.6616 66.4491 89.3823 65.0067 90.4812 63.6965C91.5773 62.3897 92 61.282 92 60.3205C92 60.0631 91.9181 59.8654 91.7259 59.6749C91.5081 59.459 91.1183 59.2275 90.4733 59.0349C89.1757 58.6474 87.1551 58.5061 84.4141 58.6635C78.9637 58.9764 71.0352 60.4438 61.237 62.9867C56.5019 64.2667 51.9982 65.2667 48.5894 65.8048C46.8901 66.0731 45.4295 66.2321 44.3366 66.2463C43.7957 66.2533 43.2959 66.226 42.8846 66.1389C42.6786 66.0954 42.4553 66.0288 42.2479 65.9187C42.0547 65.8162 41.8202 65.646 41.6589 65.3689C41.537 65.1734 41.4804 64.9702 41.4498 64.8255C41.4132 64.6526 41.3947 64.4686 41.3861 64.2876C41.3688 63.9252 41.3874 63.4864 41.4307 62.9982C41.5178 62.0168 41.7149 60.7318 42.0003 59.2467C42.572 56.272 43.513 52.4176 44.6989 48.4272C46.902 40.7318 48.1992 34.8248 48.7024 30.7407C48.9549 28.6914 49.0007 27.1524 48.8812 26.096C48.8214 25.5671 48.7252 25.2074 48.6236 24.9802C48.5585 24.8346 48.5059 24.7745 48.4837 24.7536C48.4632 24.7543 48.4234 24.7596 48.3576 24.7811C48.1857 24.837 47.9179 24.9806 47.5498 25.2828C46.8149 25.8861 45.873 26.9598 44.7355 28.5717C42.4722 31.7788 39.5793 36.9059 36.1521 44.0357C33.5871 49.5829 31.0145 54.3653 28.9722 57.5974C27.957 59.204 27.0452 60.4722 26.3104 61.2595C25.9603 61.6346 25.5652 61.9957 25.1521 62.1847C24.9396 62.282 24.6133 62.3844 24.2405 62.3069C23.8429 62.2242 23.5646 61.9748 23.3988 61.7004C23.2125 61.4133 23.0627 60.9871 22.9366 60.5831C22.7893 60.1112 22.627 59.5037 22.4528 58.7861C22.1039 57.3486 21.6954 55.4198 21.2522 53.1476C20.3653 48.6004 19.3319 42.6397 18.3484 36.4004L18.347 36.3906C16.3821 23.0743 14.7695 14.2852 13.1946 8.83498C12.4046 6.10136 11.6466 4.29063 10.9075 3.18138C10.2257 2.15802 9.66483 1.87627 9.21808 1.84253C9.13234 1.95081 8.99718 2.19495 8.85016 2.67586C8.55267 3.64897 8.30066 5.26471 8.10503 7.75069C7.71571 12.6976 7.5679 20.8025 7.5679 33.4122V65.9855ZM48.5014 24.755C48.5018 24.7548 48.4994 24.754 48.4936 24.7537C48.4982 24.7551 48.5009 24.7552 48.5014 24.755Z" stroke="black" stroke-width="2"/>
  </g>
  <defs>
    <filter id="filter0_d_245_3862" x="-58" y="0.838867" width="151" height="191.874" filterUnits="userSpaceOnUse" color-interpolation-filters="sRGB">
      <feFlood flood-opacity="0" result="BackgroundImageFix"/>
      <feColorMatrix in="SourceAlpha" type="matrix" values="0 0 0 0 0 0 0 0 0 0 0 0 0 0 0 0 0 0 127 0" result="hardAlpha"/>
      <feOffset dy="7.76457"/>
      <feComposite in2="hardAlpha" operator="out"/>
      <feColorMatrix type="matrix" values="0 0 0 0 0.745098 0 0 0 0 0.74902 0 0 0 0 0.705882 0 0 0 1 0"/>
      <feBlend mode="normal" in2="BackgroundImageFix" result="effect1_dropShadow_245_3862"/>
      <feBlend mode="normal" in="SourceGraphic" in2="effect1_dropShadow_245_3862" result="shape"/>
    </filter>
  </defs>
</svg>