<svg width="65" height="61" viewBox="0 0 65 61" fill="none" xmlns="http://www.w3.org/2000/svg">
<g id="Frame 21">
<path id="Vector" d="M34.0467 7.37612C32.4916 9.85834 34.7194 16.9714 37.8646 19.5924C40.2773 21.5526 42.0624 20.6537 42.5324 17.2123C43.0724 13.5851 40.4147 8.43611 37.3895 7.14195C35.0843 6.13044 34.8068 6.18147 34.0467 7.37612Z" fill="black"/>
<path id="Vector_2" d="M13.2772 9.02706C11.7221 11.5093 13.9498 18.6224 17.0951 21.2434C19.5078 23.2035 21.2929 22.3046 21.7629 18.8633C22.3029 15.2361 19.6452 10.0871 16.6199 8.79289C14.3147 7.78138 14.0372 7.83241 13.2772 9.02706Z" fill="black"/>
<path id="Vector_3" d="M59.2541 47.6394C59.1543 43.6598 52.9055 35.5026 46.8965 31.5739C45.0499 30.3139 41.7281 29.1389 38.7237 28.5963C34.001 27.7754 33.3056 27.8415 26.7889 29.8274C20.5354 31.7331 19.5379 32.2558 16.2687 35.1477C12.0948 38.8986 7.41642 47.5423 8.15921 50.2323C8.80915 52.586 10.3434 51.681 13.864 46.5981C17.7526 41.0386 19.7695 39.0387 23.6937 36.9679C27.439 35.0246 34.084 34.0202 38.0742 34.7728C42.8154 35.6611 51.1285 41.731 55.3281 47.3776C57.4702 50.2245 59.3015 50.3955 59.2541 47.6394Z" fill="black"/>
</g>
</svg>
