<svg xmlns="http://www.w3.org/2000/svg" width="84" height="193" viewBox="0 0 84 193" fill="none">
  <g filter="url(#filter0_d_245_3859)">
    <path d="M64.5679 33.2437V65.817L52.7817 57.3196C46.2993 52.7877 40.2098 48.8223 39.0311 48.8223C34.5131 48.8223 37.6561 57.6029 46.1029 68.3662C52.1924 76.0139 54.3532 80.2626 52.5853 81.1123C51.0138 81.962 39.424 86.494 26.4592 91.0259C2.29751 99.5233 -2.61341 103.205 1.11889 108.587C2.49394 110.57 11.9229 109.72 32.9416 105.188C49.4423 101.789 63.3893 99.8065 63.9786 100.656C64.5679 101.789 61.2285 111.703 56.7104 123.033C51.996 134.363 48.0672 144.559 47.6744 145.409C47.2815 146.542 48.2637 148.808 49.6387 150.508C51.996 153.34 53.9603 151.924 60.2463 143.993C64.5679 138.328 68.8895 133.796 69.8717 133.796C70.8539 133.796 72.8182 142.293 74.3897 152.773C77.7292 177.133 80.0864 184.78 84.408 184.78C89.7118 184.78 90.694 176 89.1225 143.426C88.3367 126.998 88.3367 113.969 89.3189 113.969C90.3011 113.969 98.1586 118.501 106.802 123.882C123.892 134.646 129.392 136.062 129.392 129.831C129.392 124.166 126.249 120.2 111.123 105.188C103.855 98.3903 97.9621 91.8756 97.9621 91.0259C97.9621 90.1762 107.98 85.361 120.159 80.2626C141.964 71.1987 151 65.2505 151 60.1521C151 55.9034 138.624 56.7531 118.981 61.8516C109.552 64.4008 101.105 65.817 100.516 64.684C99.9265 63.8343 101.302 56.4699 103.659 48.539C112.498 17.6652 106.998 14.8328 93.2476 43.4406C88.1403 54.4872 83.0329 62.4181 82.2472 61.0018C81.4614 59.8689 79.3007 48.539 77.3363 36.0762C73.4075 9.45108 70.8539 0.670456 67.1216 0.670456C65.1572 0.670456 64.5679 8.03485 64.5679 33.2437Z" fill="#DE611A"/>
    <path d="M65.5679 65.817V67.7708L63.9831 66.6282L52.2087 58.1392C52.2068 58.1378 52.2048 58.1365 52.2028 58.1351C48.9693 55.8746 45.8439 53.7625 43.3856 52.2183C42.1538 51.4445 41.1038 50.8224 40.2983 50.3969C39.8943 50.1836 39.5685 50.0286 39.3218 49.9294C39.0996 49.8402 39.0097 49.825 39.01 49.8226C39.01 49.8225 39.0102 49.8224 39.0104 49.8224C38.6198 49.8256 38.4185 49.9204 38.312 50.0047C38.2067 50.088 38.0892 50.2436 38.0208 50.5684C37.8716 51.2768 38.0224 52.4898 38.6459 54.2188C39.8711 57.6161 42.6959 62.4048 46.8876 67.7463C49.9389 71.5786 52.0538 74.6168 53.182 76.8351C53.7392 77.9309 54.1071 78.9232 54.1716 79.7608C54.2047 80.1904 54.1632 80.6399 53.9718 81.054C53.7749 81.4799 53.4501 81.8001 53.0414 82.0024C52.1529 82.4762 48.7994 83.8423 44.1524 85.6221C39.4295 87.431 33.2824 89.7001 26.791 91.9693C14.6827 96.2276 7.55187 99.2313 3.90349 101.793C2.07994 103.074 1.29998 104.128 1.07534 105.014C0.863116 105.851 1.08792 106.788 1.94061 108.017C1.95075 108.032 2.03715 108.138 2.36289 108.257C2.68179 108.374 3.15096 108.474 3.80646 108.534C5.11666 108.654 7.00616 108.599 9.56143 108.336C14.6612 107.811 22.2293 106.475 32.7308 104.211L32.7399 104.209C41.0047 102.506 48.6366 101.157 54.2835 100.339C57.1041 99.9308 59.4454 99.6525 61.1286 99.5305C61.9657 99.4698 62.6684 99.4456 63.1961 99.4686C63.456 99.4799 63.7118 99.504 63.9347 99.5544C64.0461 99.5796 64.1805 99.6181 64.315 99.6822C64.4396 99.7416 64.6434 99.8601 64.8003 100.086L64.8365 100.139L64.8658 100.195C65.0018 100.456 65.0332 100.733 65.0425 100.92C65.0529 101.13 65.04 101.357 65.0149 101.587C64.9647 102.048 64.8543 102.618 64.6998 103.268C64.3895 104.574 63.8762 106.304 63.2098 108.333C61.8753 112.395 59.9029 117.727 57.6393 123.403L57.6366 123.41L57.6337 123.417C55.2793 129.075 53.1206 134.451 51.5009 138.521C50.9806 139.828 50.5133 141.007 50.1121 142.019C49.3229 144.011 48.7894 145.357 48.6108 145.765C48.588 145.852 48.571 146.022 48.6116 146.3C48.6556 146.6 48.7583 146.965 48.922 147.374C49.2492 148.192 49.7834 149.095 50.4118 149.873C50.9481 150.516 51.3359 150.757 51.6315 150.825C51.8907 150.885 52.2772 150.856 52.9357 150.441C53.6068 150.017 54.4434 149.264 55.5318 148.079C56.6101 146.904 57.8915 145.354 59.4568 143.379C61.6329 140.527 63.8143 137.953 65.5852 136.083C66.4692 135.149 67.2658 134.375 67.9177 133.827C68.2418 133.555 68.5509 133.32 68.8314 133.149C69.0621 133.008 69.4466 132.796 69.8717 132.796C70.3007 132.796 70.6012 133.023 70.753 133.166C70.9167 133.321 71.0439 133.505 71.1422 133.669C71.3418 134.004 71.5307 134.447 71.7115 134.948C72.0778 135.962 72.4749 137.395 72.883 139.125C73.7016 142.595 74.5904 147.368 75.3787 152.625L75.3788 152.625L75.3805 152.638C77.0512 164.825 78.4665 172.747 79.9851 177.614C80.7462 180.052 81.5055 181.627 82.269 182.579C82.9985 183.488 83.6874 183.78 84.408 183.78C84.9283 183.78 85.3464 183.674 85.7016 183.471C86.0587 183.267 86.4126 182.93 86.7497 182.378C87.4449 181.24 87.9976 179.306 88.3499 176.205C89.0512 170.033 88.9101 159.776 88.1236 143.475L88.1236 143.474C87.7303 135.25 87.5331 127.867 87.5577 122.532C87.57 119.869 87.6377 117.695 87.767 116.177C87.831 115.424 87.9133 114.792 88.0234 114.329C88.0765 114.106 88.1505 113.858 88.2665 113.644C88.3422 113.504 88.6537 112.969 89.3189 112.969C89.5338 112.969 89.7384 113.023 89.8728 113.064C90.0286 113.112 90.2001 113.176 90.3791 113.25C90.7384 113.398 91.1851 113.609 91.6996 113.868C92.7317 114.388 94.0931 115.133 95.6827 116.039C98.865 117.853 103.002 120.338 107.33 123.034L107.335 123.036C115.906 128.434 121.423 131.388 124.759 132.262C126.447 132.705 127.273 132.532 127.673 132.238C128.056 131.956 128.392 131.305 128.392 129.831C128.392 127.268 127.712 125.065 125.129 121.614C122.506 118.109 117.999 113.421 110.429 105.908C106.783 102.498 103.48 99.1562 101.082 96.5541C99.8831 95.2534 98.9014 94.1272 98.2142 93.2642C97.8723 92.8348 97.5901 92.4541 97.3884 92.1404C97.2883 91.9846 97.1955 91.8262 97.1243 91.674C97.0688 91.5553 96.9621 91.3114 96.9621 91.0259C96.9621 90.762 97.0555 90.5579 97.1207 90.4426C97.1902 90.3197 97.2722 90.2196 97.3409 90.1448C97.4778 89.9957 97.6472 89.8552 97.817 89.7281C98.1628 89.4692 98.6424 89.168 99.2187 88.8361C100.379 88.1676 102.037 87.3146 104.058 86.3372C108.106 84.3798 113.673 81.8939 119.773 79.3401L119.776 79.3391C130.667 74.8117 138.306 71.0874 143.209 67.8832C145.662 66.2807 147.382 64.8383 148.481 63.528C149.577 62.2212 150 61.1135 150 60.1521C150 59.8946 149.918 59.6969 149.726 59.5064C149.508 59.2906 149.118 59.0591 148.473 58.8664C147.176 58.4789 145.155 58.3376 142.414 58.495C136.964 58.808 129.035 60.2753 119.237 62.8182C114.502 64.0983 109.998 65.0982 106.589 65.6364C104.89 65.9047 103.43 66.0636 102.337 66.0778C101.796 66.0849 101.296 66.0575 100.885 65.9705C100.679 65.9269 100.455 65.8603 100.248 65.7502C100.055 65.6477 99.8202 65.4776 99.6589 65.2004C99.537 65.0049 99.4805 64.8018 99.4498 64.6571C99.4132 64.4842 99.3947 64.3002 99.3861 64.1192C99.3688 63.7567 99.3874 63.3179 99.4307 62.8298C99.5178 61.8483 99.7149 60.5633 100 59.0782C100.572 56.1035 101.513 52.2492 102.699 48.2587C104.902 40.5634 106.199 34.6564 106.702 30.5723C106.955 28.5229 107.001 26.984 106.881 25.9275C106.821 25.3987 106.725 25.039 106.624 24.8117C106.559 24.6662 106.506 24.606 106.484 24.5852C106.463 24.5858 106.423 24.5911 106.358 24.6126C106.186 24.6686 105.918 24.8121 105.55 25.1143C104.815 25.7177 103.873 26.7914 102.736 28.4032C100.472 31.6104 97.5793 36.7374 94.1521 43.8672C91.5871 49.4144 89.0145 54.1969 86.9722 57.4289C85.957 59.0356 85.0452 60.3037 84.3104 61.0911C83.9604 61.4661 83.5652 61.8272 83.1521 62.0162C82.9396 62.1135 82.6133 62.2159 82.2405 62.1384C81.8429 62.0557 81.5645 61.8063 81.3988 61.5319C81.2125 61.2448 81.0627 60.8186 80.9366 60.4146C80.7893 59.9428 80.627 59.3353 80.4528 58.6177C80.1039 57.1801 79.6954 55.2513 79.2522 52.9792C78.3653 48.4319 77.3319 42.4713 76.3484 36.2319L76.347 36.2222C74.3821 22.9059 72.7695 14.1168 71.1946 8.66652C70.4046 5.93289 69.6466 4.12218 68.9075 3.01292C68.2257 1.98955 67.6648 1.70781 67.2181 1.67407C67.1323 1.78233 66.9972 2.02649 66.8502 2.50739C66.5527 3.48051 66.3007 5.09624 66.105 7.58221C65.7157 12.5292 65.5679 20.634 65.5679 33.2437V65.817ZM106.501 24.5865C106.502 24.5863 106.499 24.5855 106.494 24.5853C106.498 24.5867 106.501 24.5868 106.501 24.5865Z" stroke="black" stroke-width="2"/>
  </g>
  <defs>
    <filter id="filter0_d_245_3859" x="0" y="0.67041" width="151" height="191.874" filterUnits="userSpaceOnUse" color-interpolation-filters="sRGB">
      <feFlood flood-opacity="0" result="BackgroundImageFix"/>
      <feColorMatrix in="SourceAlpha" type="matrix" values="0 0 0 0 0 0 0 0 0 0 0 0 0 0 0 0 0 0 127 0" result="hardAlpha"/>
      <feOffset dy="7.76457"/>
      <feComposite in2="hardAlpha" operator="out"/>
      <feColorMatrix type="matrix" values="0 0 0 0 0.745098 0 0 0 0 0.74902 0 0 0 0 0.705882 0 0 0 1 0"/>
      <feBlend mode="normal" in2="BackgroundImageFix" result="effect1_dropShadow_245_3859"/>
      <feBlend mode="normal" in="SourceGraphic" in2="effect1_dropShadow_245_3859" result="shape"/>
    </filter>
  </defs>
</svg>