<svg width="52" height="40" viewBox="0 0 52 40" fill="none" xmlns="http://www.w3.org/2000/svg">
<path d="M17.5249 3.60967C14.3638 8.45669 15.0663 15.2706 18.7191 14.5682C21.529 14.0764 24.3388 6.13855 22.9339 2.55597C21.9504 -0.183653 19.7728 0.237827 17.5249 3.60967Z" fill="#0C0C0C"/>
<path d="M37.2636 4.80387C34.805 6.41955 34.0323 13.8657 35.929 17.5888C37.4041 20.3986 39.4413 20.3284 41.2677 17.378C43.2346 14.2872 42.8131 8.4567 40.495 5.99807C38.7388 4.10141 38.4578 4.03116 37.2636 4.80387Z" fill="#0C0C0C"/>
<path d="M0.73382 12.3202C-0.249634 16.1837 3.68418 25.8778 8.5312 31.4273C10.0064 33.1834 12.9567 35.2908 15.7666 36.6958C20.1922 38.8734 20.8946 39.0139 27.849 39.0139C34.5225 39.0139 35.6464 38.8032 39.6505 36.9768C44.7785 34.5884 51.7329 27.6339 51.7329 24.8241C51.7329 22.3654 49.9768 22.7869 45.1297 26.6505C39.791 30.8653 37.2621 32.2 32.8366 33.0429C28.6218 33.8157 21.8078 32.8322 18.0848 30.9355C13.6592 28.6877 7.12627 20.3985 4.52714 13.7251C3.19245 10.3533 1.43629 9.65079 0.73382 12.3202Z" fill="#0C0C0C"/>
</svg>
