<svg width="67" height="68" viewBox="0 0 67 68" fill="none" xmlns="http://www.w3.org/2000/svg">
<g id="Misc_06" clip-path="url(#clip0_245_4105)">
<g id="Group">
<g id="Group_2">
<path id="Vector" fill-rule="evenodd" clip-rule="evenodd" d="M15.4382 37.7095C15.1842 37.4601 14.9283 37.2107 14.6705 36.9632C12.0426 34.4442 9.43519 31.9224 6.98876 29.221C6.396 28.5668 5.28306 27.2975 4.16546 26.6443C3.36611 26.1772 2.53881 25.9818 1.78227 26.0785C1.30024 26.14 0.595844 26.3828 0.242233 27.3069C0.182677 27.4623 0.111971 27.7293 0.0840541 28.0699C0.0393874 28.6208 0.0831022 29.6091 0.0970605 29.7458C0.292477 31.7391 0.487887 33.6449 0.846151 35.6167C1.17557 37.4313 1.40075 39.2599 1.75529 41.0717C2.28571 43.7824 2.96876 46.3916 3.96446 48.973C4.33389 49.9314 5.4124 50.4088 6.37087 50.0394C7.32841 49.67 7.80671 48.5924 7.43728 47.6339C6.52069 45.2564 5.89629 42.8537 5.40868 40.357C5.05693 38.5619 4.83451 36.7492 4.50788 34.9514C4.29572 33.7817 4.14495 32.6362 4.01654 31.4804L4.22964 31.7195C6.73562 34.4861 9.40355 37.0703 12.0947 39.6498C13.1016 40.6157 14.074 41.6095 15.0967 42.5596C15.1795 42.6806 15.5619 43.2352 15.7499 43.425C16.0626 43.7414 16.4004 43.9182 16.6944 44.0057C17.4417 44.229 18.2001 44.1462 18.8627 43.3087C19.3586 42.6815 19.6443 41.709 19.6229 40.5477C19.594 38.9518 18.9883 36.8479 18.8599 35.8782C18.0466 29.7431 16.7308 23.6321 16.3809 17.4439C16.3232 16.4185 15.4438 15.633 14.4183 15.6907C13.3929 15.7494 12.6065 16.6287 12.6651 17.6542C13.0197 23.9354 14.3439 30.1395 15.1693 36.3677C15.214 36.699 15.32 37.1707 15.4382 37.7095Z" fill="black"/>
<path id="Vector_2" fill-rule="evenodd" clip-rule="evenodd" d="M31.7008 12.278C29.5903 12.8372 27.4761 13.3248 25.7806 14.7746C24.007 16.2924 23.1053 18.4969 22.7843 20.9535C22.3748 24.0876 22.9239 27.6433 23.2644 30.1772C23.4413 31.4893 23.5166 33.3178 23.8991 34.9379C24.2285 36.331 24.7896 37.5788 25.6448 38.4526C26.9885 39.8252 29.0506 39.9638 31.1658 39.1077C33.6094 38.1185 36.0428 35.8359 36.7045 34.5052C37.1623 33.5858 36.7872 32.4673 35.8669 32.0104C34.9475 31.5526 33.83 31.9276 33.3721 32.847C32.9525 33.691 31.3193 35.0301 29.769 35.6582C29.4229 35.7978 29.0804 35.902 28.7566 35.928C28.5881 35.942 28.4197 35.9662 28.3053 35.8499C27.7441 35.2757 27.5469 34.3424 27.384 33.3997C27.156 32.0858 27.0927 30.7132 26.9541 29.6803C26.6488 27.4144 26.1092 24.2384 26.4749 21.4356C26.6712 19.9327 27.1151 18.5323 28.201 17.6036C29.461 16.526 31.0839 16.2924 32.6537 15.8764C33.6466 15.614 34.2394 14.5941 33.9761 13.6012C33.7136 12.6083 32.6937 12.0155 31.7008 12.278Z" fill="black"/>
<path id="Vector_3" fill-rule="evenodd" clip-rule="evenodd" d="M31.5577 22.0849C29.9227 22.9754 28.1751 23.891 26.4229 24.5201C25.456 24.8672 24.9526 25.9337 25.2988 26.9005C25.6458 27.8673 26.7122 28.3707 27.6791 28.0237C29.6091 27.3313 31.5381 26.3347 33.3378 25.3548C34.2395 24.8635 34.5736 23.7319 34.0822 22.8302C33.5909 21.9276 32.4603 21.5945 31.5577 22.0849Z" fill="black"/>
<path id="Vector_4" fill-rule="evenodd" clip-rule="evenodd" d="M54.0342 23.0728C52.6756 21.4294 51.2397 19.8122 49.7229 18.3344C49.5992 18.2144 48.0694 16.9544 47.1602 16.4835C46.547 16.1662 46.0035 16.1085 45.6853 16.1392C44.7594 16.2286 44.1945 16.7302 43.9628 17.5881C43.7413 18.4107 43.6613 19.2678 43.6613 20.1425C42.285 17.5621 41.026 14.9081 40.2611 12.1137C40.1978 11.8829 40.1466 11.7749 40.1382 11.7554C39.8805 11.1859 39.5148 10.9923 39.3845 10.916C38.7443 10.5401 38.1673 10.6034 37.6806 10.8221C37.6211 10.8481 36.309 11.4306 36.6226 12.9186C36.6477 13.0386 36.8618 13.8938 36.9241 14.2279C36.979 14.5182 37.0981 14.7797 37.2647 15.0012C38.547 18.6843 40.5086 22.1637 42.3911 25.5611C42.7978 26.2953 43.1151 27.0518 43.3245 27.8642C43.3859 28.1015 43.411 28.6384 43.465 28.9018C43.5571 29.3475 43.7395 29.6462 43.8558 29.7988C44.4607 30.5935 45.206 30.6745 45.8937 30.4707C46.1878 30.3842 46.7768 30.186 47.1351 29.3326C47.9409 27.4157 47.8497 25.2987 47.6162 23.1658C47.5473 22.5349 47.4617 21.904 47.4096 21.2805C49.0651 22.9258 50.6144 24.7403 52.0707 26.554C52.2308 26.7531 53.8518 28.5659 54.2827 28.8357C55.3603 29.5132 56.1968 29.0041 56.5551 28.7008C57.1013 28.2374 57.5313 27.4418 57.7062 26.4284C57.9314 25.1173 57.7536 23.3129 57.736 22.587C57.6178 17.7016 57.441 12.5948 56.3438 7.82473C56.114 6.82346 55.1146 6.19809 54.1133 6.42794C53.112 6.65778 52.4867 7.65816 52.7166 8.65851C53.7579 13.1885 53.9021 18.0394 54.0147 22.6773C54.0174 22.7843 54.0249 22.9183 54.0342 23.0728Z" fill="black"/>
<path id="Vector_5" fill-rule="evenodd" clip-rule="evenodd" d="M61.4713 6.58714C62.146 9.84874 62.8216 13.0805 63.2626 16.4343C63.3966 17.4532 64.3318 18.1716 65.3508 18.0376C66.3688 17.9036 67.0872 16.9684 66.9532 15.9494C66.3316 11.2194 65.2559 6.72858 64.3551 2.06278C64.008 0.259362 62.2939 0.511568 62.1888 0.530179C61.9571 0.571123 60.6943 0.840051 60.6524 2.3187C60.6496 2.40897 60.7101 3.04728 60.7204 3.29481C60.7427 3.86152 60.7315 4.41522 60.7026 4.98286C60.6691 5.63704 60.9772 6.22981 61.4713 6.58714Z" fill="black"/>
<path id="Vector_6" fill-rule="evenodd" clip-rule="evenodd" d="M66.2885 25.8207C66.4774 25.2456 66.3816 24.5887 65.9758 24.0797C65.3347 23.2766 64.1631 23.1454 63.36 23.7866C62.6184 24.3784 62.4797 25.0996 62.5793 25.9817C62.6947 27.0026 63.6178 27.7377 64.6386 27.6213C65.572 27.5162 66.2662 26.7345 66.2885 25.8207Z" fill="black"/>
<path id="Vector_7" fill-rule="evenodd" clip-rule="evenodd" d="M31.1537 61.7216C30.9639 61.3196 30.8113 61.0023 30.775 60.9343C29.046 57.7007 27.17 54.5098 25.1274 51.4641C24.5551 50.6107 23.3985 50.3828 22.5452 50.9551C21.6918 51.5273 21.4639 52.6841 22.0362 53.5374C24.0099 56.4798 25.8216 59.5646 27.4929 62.6894C27.6204 62.9276 28.47 65.0446 29.0767 65.9277C29.6267 66.7271 30.3171 67.0127 30.7126 67.0714C31.3408 67.1644 32.3234 66.9392 33.1209 65.8747C34.1622 64.4853 35.5124 60.7734 35.7348 60.1574C36.1424 59.0239 36.4876 57.8347 36.8078 56.678C37.4145 54.4837 37.7634 52.2504 38.0752 50.0003C38.2166 48.9823 37.5048 48.0424 36.4867 47.901C35.4696 47.7605 34.5288 48.4724 34.3883 49.4895C34.0989 51.5767 33.7835 53.65 33.2205 55.6851C32.9246 56.7524 32.6082 57.8514 32.2322 58.8974C32.1187 59.211 31.6776 60.5063 31.1537 61.7216Z" fill="black"/>
</g>
</g>
</g>
<defs>
<clipPath id="clip0_245_4105">
<rect width="67" height="67" fill="white" transform="translate(0 0.5)"/>
</clipPath>
</defs>
</svg>
