<svg width="91" height="123" viewBox="0 0 91 123" fill="none" xmlns="http://www.w3.org/2000/svg">
<path d="M36.9764 24.6466V22.5997C36.9764 22.0569 37.1921 21.5362 37.5759 21.1524C37.9598 20.7685 38.4804 20.5528 39.0233 20.5528C39.5662 20.5528 40.0868 20.7685 40.4707 21.1524C40.8545 21.5362 41.0702 22.0569 41.0702 22.5997V24.6466C41.0702 25.1895 40.8545 25.7101 40.4707 26.094C40.0868 26.4778 39.5104 26.0856 38.9676 26.0856C38.4247 26.0856 37.9598 26.4778 37.5759 26.094C37.1921 25.7101 36.9764 25.1895 36.9764 24.6466ZM51.3594 26.0856C51.9023 26.0856 52.368 26.4778 52.7519 26.094C53.1358 25.7101 53.3514 25.1895 53.3514 24.6466V22.5997C53.3514 22.0569 53.1358 21.5362 52.7519 21.1524C52.368 20.7685 51.8474 20.5528 51.3046 20.5528C50.7617 20.5528 50.2411 20.7685 49.8572 21.1524C49.4733 21.5362 49.2577 22.0569 49.2577 22.5997V24.6466C49.2577 25.1895 49.4733 25.7101 49.8572 26.094C50.2411 26.4778 50.8166 26.0856 51.3594 26.0856ZM45.1639 53.3028C40.821 53.3028 36.656 55.0281 33.5851 58.099C30.5141 61.1699 28.7889 65.3349 28.7889 69.6778V71.7247C28.7889 72.2676 29.0046 72.7882 29.3884 73.1721C29.7723 73.5559 29.5733 72.1126 30.1162 72.1126C30.6591 72.1126 31.8993 73.5559 32.2832 73.1721C32.667 72.7882 32.8827 72.2676 32.8827 71.7247V69.6778C32.8827 66.4207 34.1766 63.2969 36.4798 60.9937C38.783 58.6905 41.9067 57.3966 45.1639 57.3966C45.7068 57.3966 46.2274 57.1809 46.6113 56.7971C46.9952 56.4132 47.2108 55.8926 47.2108 55.3497C47.2108 54.8069 46.9952 54.2862 46.6113 53.9024C46.2274 53.5185 45.7068 53.3028 45.1639 53.3028ZM52.8192 55.186C52.5804 55.0578 52.3185 54.9784 52.0487 54.9523C51.7789 54.9263 51.5066 54.954 51.2477 55.034C50.9887 55.1139 50.7482 55.2446 50.5401 55.4182C50.332 55.5919 50.1234 55.9332 49.9984 56.1736C49.7462 56.6541 49.7321 57.0871 49.8933 57.6053C50.0545 58.1235 50.4149 58.5564 50.8952 58.8089C51.2819 59.0144 51.6577 59.2399 52.021 59.4844C52.3598 59.7121 52.759 59.8333 53.1672 59.8324C53.5025 59.8329 53.8328 59.751 54.129 59.594C54.4252 59.4369 54.6446 59.3518 54.8324 59.074C54.9832 58.851 55.1224 58.4582 55.1762 58.1944C55.2301 57.9306 55.2314 57.6588 55.1801 57.3945C55.1287 57.1302 55.0258 56.8787 54.8771 56.6542C54.7284 56.4298 54.5368 56.2369 54.3135 56.0866C53.8222 55.7591 53.3514 55.4725 52.8192 55.186ZM56.6264 60.8354C56.3902 60.9674 56.1824 61.1449 56.0152 61.3577C55.848 61.5705 55.7247 61.8144 55.6524 62.0751C55.58 62.3359 55.5601 62.6085 55.5938 62.877C55.6275 63.1455 55.7141 63.4047 55.8486 63.6396C56.8975 65.479 57.4479 67.5604 57.4452 69.6778V71.7247C57.4452 72.2676 57.6608 72.7882 58.0447 73.1721C58.4286 73.5559 59.6679 72.1126 60.2108 72.1126C60.7537 72.1126 60.5555 73.5559 60.9394 73.1721C61.3233 72.7882 61.5389 72.2676 61.5389 71.7247V69.6778C61.5624 66.8582 60.8573 64.0803 59.4921 61.6132C59.3603 61.3686 59.1801 61.1534 58.9625 60.9808C58.7449 60.8081 58.4944 60.6815 58.2263 60.6087C57.9582 60.536 57.6781 60.5185 57.4031 60.5575C57.128 60.5964 56.8638 60.691 56.6264 60.8354ZM90.1952 82.1638C89.5561 87.5697 87.4305 92.6925 84.0546 96.9627V104.475C84.0357 109.001 82.351 113.362 79.3217 116.726C76.2925 120.09 72.1309 122.22 67.631 122.711C63.1311 123.202 58.608 122.019 54.9246 119.388C51.2413 116.757 48.6557 112.862 47.6611 108.446C46.8219 108.446 46.0031 108.568 45.1639 108.568C44.3247 108.568 43.506 108.568 42.6667 108.446C41.6722 112.862 39.0865 116.757 35.4032 119.388C31.7199 122.019 27.1967 123.202 22.6968 122.711C18.1969 122.22 14.0353 120.09 11.0061 116.726C7.97689 113.362 6.29213 109.001 6.2733 104.475V96.9627C2.89736 92.6925 0.771722 87.5697 0.132679 82.1638C-1.38201 66.9964 10.1828 51.4607 29.1574 42.4953C24.9953 38.2882 22.657 32.6115 22.6483 26.6935C22.658 25.7765 22.7195 24.8607 22.8325 23.9507C20.3925 23.151 18.2683 21.5993 16.7644 19.5181C15.2605 17.4369 14.4541 14.933 14.4608 12.3653C14.4897 9.73866 15.3601 7.19046 16.9441 5.09493C18.5281 2.9994 20.7423 1.46696 23.2615 0.722656C25.7806 -0.0216498 28.4721 0.0613922 30.9406 0.959588C33.4091 1.85778 35.5246 3.5238 36.9764 5.713C42.2004 3.66567 48.0046 3.66567 53.2286 5.713C54.2821 4.04852 55.7206 2.66189 57.4226 1.67011C59.1246 0.678336 61.0402 0.110519 63.0077 0.0145766C64.9752 -0.0813654 66.937 0.297383 68.7274 1.11886C70.5178 1.94034 72.0843 3.18044 73.2948 4.73452C74.5053 6.2886 75.3242 8.11105 75.6824 10.0481C76.0406 11.9851 75.9275 13.9799 75.3529 15.8641C74.7782 17.7483 73.7587 19.4666 72.3805 20.874C71.0022 22.2814 69.3057 23.3366 67.4339 23.9507C67.5675 24.8596 67.6495 25.7753 67.6796 26.6935C67.6709 32.6115 65.3326 38.2882 61.1705 42.4953C80.145 51.3788 91.7099 66.9964 90.1952 82.1638ZM56.9744 7.55519C61.5504 10.3725 64.9749 14.7258 66.6356 19.8364C67.8368 19.3803 68.9137 18.648 69.7793 17.6985C70.6449 16.7491 71.275 15.6093 71.6185 14.3713C71.962 13.1333 72.0094 11.8318 71.7567 10.5721C71.504 9.31238 70.9584 8.12981 70.1641 7.12002C69.3697 6.11023 68.3488 5.30155 67.184 4.75939C66.0192 4.21723 64.7432 3.95681 63.4591 3.99917C62.175 4.04154 60.9189 4.38551 59.7924 5.00327C58.6658 5.62103 57.7005 6.49523 56.9744 7.55519ZM23.6922 19.8364C25.3529 14.7258 28.7775 10.3725 33.3535 7.55519C32.6274 6.49523 31.662 5.62103 30.5355 5.00327C29.409 4.38551 28.1529 4.04154 26.8688 3.99917C25.5847 3.95681 24.3086 4.21723 23.1438 4.75939C21.979 5.30155 20.9581 6.11023 20.1638 7.12002C19.3694 8.12981 18.8238 9.31238 18.5712 10.5721C18.3185 11.8318 18.3658 13.1333 18.7094 14.3713C19.0529 15.6093 19.6829 16.7491 20.5485 17.6985C21.4142 18.648 22.4911 19.3803 23.6922 19.8364ZM26.7421 26.6935C26.7442 31.2233 28.4153 35.5936 31.436 38.9692C34.4567 42.3449 38.6152 44.4892 43.1171 44.9925V38.4016C42.3366 37.951 41.7267 37.2555 41.3818 36.4229C41.0369 35.5903 40.9764 34.6672 41.2097 33.7968C41.4429 32.9263 41.9569 32.1571 42.6718 31.6085C43.3868 31.0599 44.2628 32.2882 45.1639 32.2882C46.0651 32.2882 46.9411 31.0599 47.656 31.6085C48.371 32.1571 48.8849 32.9263 49.1182 33.7968C49.3514 34.6672 49.2909 35.5903 48.9461 36.4229C48.6012 37.2555 47.9912 37.951 47.2108 38.4016V44.9925C50.7454 44.5974 54.09 43.1875 56.8408 40.9331C59.5916 38.6787 61.6311 35.6763 62.7129 32.2882C63.7947 28.9002 63.8727 25.2714 62.9373 21.84C62.002 18.4086 60.0934 15.3214 57.4419 12.951C54.7904 10.5805 51.5095 9.02832 47.9952 8.48171C44.4808 7.93511 40.8834 8.41749 37.6372 9.87061C34.3911 11.3237 31.6349 13.6855 29.7016 16.6707C27.7682 19.6559 26.7404 23.1369 26.7421 26.6935ZM39.0233 94.2403C39.0233 90.4403 37.5137 86.7959 34.8267 84.1088C32.1396 81.4218 28.6054 82.7342 24.8054 82.7342C21.0053 82.7342 17.2507 81.4218 14.5637 84.1088C11.8766 86.7959 10.3671 90.4403 10.3671 94.2403V104.475C10.3671 108.275 11.8766 111.919 14.5637 114.606C17.2507 117.293 21.0053 116.369 24.8054 116.369C28.6054 116.369 32.1396 117.293 34.8267 114.606C37.5137 111.919 39.0233 108.275 39.0233 104.475V94.2403ZM47.2108 104.475V98.3341C45.8529 98.5251 44.475 98.5251 43.1171 98.3341V104.475C44.4797 104.577 45.8481 104.577 47.2108 104.475ZM79.9608 94.2403C79.9608 90.4403 78.4512 86.7959 75.7642 84.1088C73.0771 81.4218 69.4327 82.7342 65.6327 82.7342C61.8326 82.7342 58.1882 81.4218 55.5012 84.1088C52.8141 86.7959 51.3046 90.4403 51.3046 94.2403V104.475C51.3046 108.275 52.8141 111.919 55.5012 114.606C58.1882 117.293 61.8326 116.369 65.6327 116.369C69.4327 116.369 73.0771 117.293 75.7642 114.606C78.4512 111.919 79.9608 108.275 79.9608 104.475V94.2403ZM57.6703 45.4019C53.9682 47.8748 49.616 49.1947 45.1639 49.1947C40.7118 49.1947 36.3596 47.8748 32.6575 45.4019C14.4608 53.3028 2.83455 68.1018 4.22643 81.7544C4.51958 84.6901 5.38167 87.5405 6.76455 90.1466C7.38537 87.5089 8.58044 85.0407 10.2646 82.9179C11.9487 80.795 14.0804 79.0699 16.5077 77.8653V68.3064C16.513 65.8071 16.8293 63.318 17.4492 60.8967C17.5886 60.3734 17.9296 59.9267 18.3976 59.6543C18.8657 59.3819 18.8999 62.5621 19.4237 62.6995C19.6847 62.7663 20.4526 59.6279 20.668 59.7897C20.8835 59.9514 21.0648 60.1541 21.2017 60.3861C21.3386 60.6181 21.4284 60.8748 21.4659 61.1416C21.5034 61.4084 21.4879 61.6799 21.4202 61.9407C20.8714 64.0179 20.5962 66.1579 20.6014 68.3064V76.2893C21.9434 75.9755 23.317 75.8176 24.6952 75.8185C29.5457 75.8182 34.2006 77.7309 37.6496 81.1415C41.0985 84.5522 43.0632 89.1854 43.1171 94.0357C44.4706 94.2813 45.8573 94.2813 47.2108 94.0357C47.2647 89.1854 49.2293 84.5522 52.6783 81.1415C56.1272 77.7309 60.7821 75.8182 65.6327 75.8185C67.0108 75.8176 68.3845 75.9755 69.7264 76.2893V68.3064C69.7283 66.1797 69.4601 64.0612 68.9281 62.0021C68.7924 61.4755 68.8715 60.9166 69.1478 60.4482C69.4242 59.9799 70.6659 62.1378 71.1925 62.0021C71.719 61.8663 71.4874 59.4482 71.9557 59.7246C72.424 60.0009 72.7634 60.452 72.8991 60.9786C73.5134 63.3727 73.8229 65.8348 73.8202 68.3064V77.8653C76.2475 79.0699 78.3792 80.795 80.0633 82.9179C81.7474 85.0407 82.9425 87.5089 83.5633 90.1466C84.9462 87.5405 85.8083 84.6901 86.1014 81.7544C87.4933 68.1018 75.8671 53.3028 57.6703 45.4019ZM32.8827 96.2872V104.475C32.8827 106.646 32.0201 108.729 30.4846 110.264C28.9492 111.8 26.8666 112.662 24.6952 112.662C22.5237 112.662 20.4412 111.8 18.9057 110.264C17.3703 108.729 16.5077 106.646 16.5077 104.475V96.2872C16.5077 94.1158 17.3703 92.0332 18.9057 90.4978C20.4412 88.9623 22.5237 88.0997 24.6952 88.0997C26.8666 88.0997 28.9492 88.9623 30.4846 90.4978C32.0201 92.0332 32.8827 94.1158 32.8827 96.2872ZM28.7889 96.2872C28.7889 95.2015 28.3576 94.1602 27.5899 93.3925C26.8222 92.6248 25.7809 98.7012 24.6952 98.7012C23.6095 98.7012 22.5682 92.6248 21.8005 93.3925C21.0327 94.1602 20.6014 95.2015 20.6014 96.2872V104.475C20.6014 105.56 21.0327 106.602 21.8005 107.369C22.5682 108.137 23.6094 102.207 24.6952 102.207C25.7809 102.207 26.8222 108.137 27.5899 107.369C28.3576 106.602 28.7889 105.56 28.7889 104.475V96.2872ZM73.8202 96.2872V104.475C73.8202 106.646 72.9576 108.729 71.4221 110.264C69.8867 111.8 67.8041 112.662 65.6327 112.662C63.4612 112.662 61.3787 111.8 59.8432 110.264C58.3078 108.729 57.4452 106.646 57.4452 104.475V96.2872C57.4452 94.1158 58.3078 92.0332 59.8432 90.4978C61.3787 88.9623 63.4612 88.0997 65.6327 88.0997C67.8041 88.0997 69.8867 88.9623 71.4221 90.4978C72.9576 92.0332 73.8202 94.1158 73.8202 96.2872ZM69.7264 96.2872C69.7264 95.2015 69.2951 94.1602 68.5274 93.3925C67.7597 92.6248 66.7184 98.3341 65.6327 98.3341C64.547 98.3341 63.5057 92.6248 62.738 93.3925C61.9702 94.1602 61.5389 95.2015 61.5389 96.2872V104.475C61.5389 105.56 61.9702 106.602 62.738 107.369C63.5057 108.137 64.547 102.059 65.6327 102.059C66.7184 102.059 67.7597 108.137 68.5274 107.369C69.2951 106.602 69.7264 105.56 69.7264 104.475V96.2872Z" fill="#DE611A"/>
</svg>
